<svg width="222" height="47" viewBox="0 0 222 47" fill="none" xmlns="http://www.w3.org/2000/svg">
<g clip-path="url(#clip0_1370:1905)">
<g clip-path="url(#clip1_1370:1905)">
<path d="M209.213 27.2648C209.213 26.9834 209.088 26.6865 209.041 26.4051C209.02 26.2391 209.02 26.071 209.041 25.9049C209.041 24.967 209.041 24.0291 209.041 23.0913C209.035 22.7913 208.999 22.4928 208.932 22.2003C208.858 21.289 208.603 20.4015 208.183 19.5899C208.059 19.3867 207.887 19.2148 207.762 19.0116C207.45 18.5114 207.123 17.9956 206.858 17.4485C206.717 17.1828 206.936 16.917 207.123 16.7607C207.578 16.3465 208.075 15.9799 208.604 15.6665C209.504 15.1626 210.486 14.8238 211.505 14.6661C213.086 14.3766 214.709 14.4085 216.277 14.7599C217.107 14.9993 217.864 15.4456 218.476 16.0573C219.037 16.62 219.63 17.1515 220.207 17.6204C220.561 17.9782 220.788 18.443 220.853 18.9429C220.918 19.4429 220.817 19.9504 220.565 20.3871C220.482 20.5143 220.414 20.6507 220.363 20.7935C220 21.7339 219.573 22.6479 219.084 23.529C218.645 24.4168 218.259 25.3302 217.93 26.2644C217.809 26.7175 217.767 27.1881 217.805 27.6556C217.805 27.8119 218.008 28.0151 218.179 28.0933C218.632 28.3121 219.115 28.4684 219.567 28.6559C220.019 28.8435 220.534 29.0624 221.002 29.2968C221.232 29.406 221.432 29.5699 221.584 29.7743C221.736 29.9786 221.836 30.2172 221.875 30.4692C221.991 30.8992 222.069 31.3386 222.109 31.7822C222.131 31.9806 222.09 32.181 221.992 32.3548C221.894 32.5287 221.744 32.6674 221.563 32.7513C220.953 33.1274 220.22 33.2508 219.52 33.0952C219.245 33.0794 218.969 33.0794 218.694 33.0952C217.805 33.0171 216.916 32.9076 216.027 32.8607C215.497 32.8607 214.982 32.8607 214.468 32.8607C213.555 32.8657 212.647 32.9972 211.77 33.2515C211.232 33.4228 210.655 33.4228 210.117 33.2515C209.717 33.1522 209.311 33.0843 208.901 33.0483C208.651 33.0163 208.413 32.9242 208.207 32.78C208 32.6357 207.832 32.4435 207.716 32.2198C207.389 31.7909 207.024 31.3932 206.624 31.0319C206.559 30.9608 206.47 30.9162 206.374 30.9068C205.766 30.9068 205.392 30.5317 204.94 30.2503C204.487 29.969 204.3 29.8595 203.973 29.6876C203.845 29.6382 203.729 29.5606 203.634 29.4605C203.54 29.3605 203.469 29.2404 203.427 29.1093C203.224 28.6148 203.138 28.0795 203.177 27.5462C203.207 27.2889 203.27 27.0366 203.365 26.7959C203.456 26.6779 203.582 26.5928 203.726 26.5533C203.869 26.5139 204.022 26.5222 204.16 26.577C204.308 26.5976 204.45 26.6453 204.581 26.7177C205.384 27.1277 206.103 27.6843 206.702 28.359C206.794 28.5223 206.937 28.6515 207.108 28.7275C207.279 28.8034 207.47 28.8222 207.653 28.781H207.996C208.651 28.5934 209.275 28.3434 209.213 27.2648ZM210.772 21.3094C210.897 21.3195 211.022 21.3195 211.146 21.3094L212.363 20.9498C212.643 20.8717 212.955 20.856 213.236 20.7935C213.429 20.7369 213.617 20.6637 213.797 20.5747C213.854 20.5494 213.905 20.513 213.947 20.4678C213.99 20.4225 214.023 20.3693 214.045 20.3111C214.067 20.2529 214.076 20.191 214.074 20.1289C214.072 20.0668 214.057 20.0058 214.031 19.9495C214.031 19.6837 213.704 19.6681 213.485 19.715C213.058 19.8559 212.603 19.8881 212.16 19.8088C211.848 19.7306 211.505 19.6837 211.177 19.6212C210.429 19.4649 210.086 19.7306 210.055 20.4809C210.023 21.2312 210.242 21.325 210.725 21.3094H210.772ZM210.398 24.2324C210.398 25.0296 210.632 25.2328 211.287 25.0608C211.754 24.9403 212.212 24.7888 212.659 24.6075C212.8 24.5522 212.923 24.4605 213.018 24.3418C213.096 24.2384 213.138 24.1121 213.138 23.9823C213.138 23.8524 213.096 23.7261 213.018 23.6227C212.893 23.357 212.659 23.4665 212.472 23.4665L212.082 23.5602C211.696 23.6953 211.281 23.7223 210.881 23.6384C210.6 23.5446 210.46 23.7166 210.366 23.951C210.357 24.046 210.368 24.1419 210.398 24.2324ZM210.507 26.6552C210.455 26.8976 210.419 27.1429 210.398 27.3898C210.398 27.8275 210.569 27.9682 210.99 27.9213C211.411 27.8744 211.754 27.8119 212.144 27.7337C212.534 27.6556 212.862 27.468 212.799 27.2179C212.737 26.9678 212.456 26.8428 211.988 26.9678C211.719 27.0555 211.431 27.0728 211.153 27.0181C210.874 26.9634 210.614 26.8385 210.398 26.6552H210.507Z" fill="#000"/>
<path d="M191.965 16.5886L191.778 18.0736C191.669 18.8708 191.56 19.6367 191.497 20.4652C191.474 20.8921 191.474 21.32 191.497 21.7469C191.497 22.0595 191.497 22.3721 191.497 22.7004C191.497 23.5757 191.497 24.4511 191.497 25.3265C191.497 26.2018 191.716 26.8896 191.762 27.718C191.919 28.9218 191.919 30.1407 191.762 31.3444C191.703 31.6539 191.667 31.9674 191.653 32.2823C191.578 33.1653 191.247 34.0072 190.702 34.7051C190.598 34.8092 190.477 34.8939 190.343 34.9552C190.156 35.0646 189.954 35.1428 189.766 35.2678C189.643 35.3546 189.496 35.4011 189.345 35.4011C189.195 35.4011 189.048 35.3546 188.924 35.2678L187.568 34.3925C187.39 34.2894 187.24 34.1446 187.131 33.9705C186.935 33.558 186.597 33.2304 186.18 33.0482C185.516 32.6442 184.939 32.113 184.48 31.4851L183.685 30.6254L183.357 30.3128C182.624 29.4843 182.593 29.2342 183.108 28.2651V28.1713C183.482 27.4523 183.497 27.4366 184.277 27.6398L184.792 27.8274C185.186 28.036 185.624 28.1485 186.071 28.1557C186.273 28.1557 186.492 28.2964 186.71 28.3589C187.01 28.4931 187.323 28.5927 187.645 28.6558C187.779 28.6821 187.918 28.6746 188.048 28.6341C188.179 28.5936 188.297 28.5214 188.393 28.4239C188.489 28.3263 188.559 28.2065 188.597 28.0752C188.635 27.9438 188.641 27.805 188.612 27.6711C188.612 27.4679 188.612 27.2647 188.519 27.0615C188.41 26.1549 188.269 26.0924 187.38 25.9829C186.835 25.9829 186.273 25.9829 185.712 25.8266C185.453 25.7994 185.203 25.7118 184.984 25.5706C184.765 25.4295 184.581 25.2388 184.449 25.0138C184.358 24.9032 184.295 24.7723 184.265 24.6322C184.235 24.492 184.24 24.3467 184.278 24.2087C184.316 24.0706 184.387 23.9438 184.485 23.8391C184.582 23.7344 184.704 23.6548 184.838 23.607C185.36 23.3104 185.931 23.1093 186.523 23.013C187.052 22.967 187.575 22.8621 188.082 22.7004C188.275 22.6199 188.44 22.4859 188.559 22.3142C188.678 22.1424 188.745 21.9401 188.753 21.7313C188.807 21.3791 188.807 21.0206 188.753 20.6684C188.638 19.928 188.68 19.1715 188.877 18.4487C188.958 18.063 188.999 17.6704 189.002 17.2764C188.995 17.0711 188.947 16.8693 188.862 16.6825C188.821 16.5868 188.744 16.5106 188.648 16.4699C188.552 16.4292 188.445 16.4269 188.347 16.4636L186.897 16.8856L185.338 17.4327C185.207 17.4899 185.09 17.5736 184.993 17.6785C184.896 17.7834 184.823 17.9073 184.776 18.0424C184.636 18.355 184.776 18.5425 185.119 18.5582H186.18C186.445 18.5582 186.694 18.5582 186.959 18.652C187.43 18.8001 187.831 19.1152 188.086 19.5382C188.342 19.9612 188.434 20.463 188.347 20.9497C188.347 21.5281 188.207 21.6531 187.63 21.7938C186.414 22.1371 185.164 22.3416 183.903 22.4034C183.295 22.4034 183.108 22.9193 182.983 23.3257C182.548 24.5493 182.027 25.7403 181.423 26.8896C181.049 27.6555 180.659 28.4527 180.269 29.1873C180.042 29.6621 179.664 30.0473 179.193 30.2815C179.106 30.3553 178.996 30.3958 178.881 30.3958C178.767 30.3958 178.657 30.3553 178.57 30.2815C178.398 30.1095 178.46 29.9064 178.57 29.7188C178.619 29.5593 178.698 29.4108 178.803 29.2811C179.509 28.5015 180.078 27.6085 180.488 26.6395C180.737 26.1236 181.018 25.6234 181.283 25.0764C181.988 23.7338 182.477 22.2885 182.733 20.7934C182.855 20.2643 183.006 19.7424 183.185 19.2303C183.185 19.0115 183.341 18.8083 183.388 18.5895C183.439 18.378 183.422 18.1561 183.341 17.9544C183.26 17.7527 183.119 17.5814 182.936 17.464L182.109 16.9013C181.847 16.7499 181.652 16.5036 181.565 16.213C181.478 15.9223 181.506 15.6093 181.642 15.3382C182.083 14.1121 182.992 13.1115 184.168 12.5558C185.135 12.0244 186.133 11.5398 187.131 11.0709C187.361 10.9498 187.621 10.9008 187.879 10.9302C188.443 10.9626 188.984 11.1581 189.439 11.4929C189.535 11.5804 189.646 11.6493 189.766 11.6961C190.453 11.9931 190.827 12.634 191.326 13.1342C191.407 13.2552 191.455 13.3953 191.466 13.5406C191.606 14.1502 191.747 14.7442 191.84 15.3538C191.904 15.7629 191.946 16.1751 191.965 16.5886Z" fill="#000"/>
<path d="M145.525 28.1401H144.901C144.608 28.1996 144.311 28.2362 144.012 28.2495C143.851 28.2533 143.692 28.2132 143.552 28.1333C143.412 28.0535 143.296 27.9369 143.217 27.7962C143.145 27.7261 143.091 27.6391 143.06 27.543C143.03 27.4469 143.023 27.3447 143.042 27.2455C143.06 27.1464 143.103 27.0534 143.166 26.9749C143.23 26.8964 143.311 26.8349 143.404 26.7958C143.622 26.6551 143.856 26.5457 144.075 26.3894C144.276 26.2561 144.469 26.1099 144.652 25.9517C144.511 25.686 144.402 25.4359 144.277 25.2014C144.153 24.967 144.043 24.8575 143.965 24.67C143.828 24.4288 143.79 24.1433 143.86 23.8745C143.93 23.6057 144.102 23.375 144.34 23.2319C144.667 22.9974 145.041 22.7943 145.353 22.5285C145.654 22.2826 145.921 21.9989 146.149 21.6844C146.218 21.6015 146.267 21.5034 146.292 21.3979C146.316 21.2925 146.315 21.1828 146.289 21.0777C146.264 20.9726 146.213 20.8751 146.143 20.7931C146.072 20.7111 145.983 20.647 145.884 20.6059C145.588 20.4421 145.306 20.2539 145.042 20.0432C144.867 19.9274 144.728 19.7643 144.642 19.5729C144.556 19.3815 144.527 19.1695 144.556 18.9617C144.585 18.7538 144.673 18.5586 144.809 18.3986C144.944 18.2387 145.122 18.1206 145.322 18.058C145.634 17.929 145.936 17.7775 146.227 17.6047C146.726 17.339 146.819 16.9169 146.398 16.5887C145.737 16.072 145.044 15.597 144.324 15.1663C143.887 14.9006 143.591 15.0881 143.498 15.604C143.31 16.5049 143.342 17.4379 143.591 18.3238C143.715 18.7899 143.798 19.2658 143.841 19.7462C143.903 20.1422 143.716 20.3922 143.279 20.4965C143.191 20.384 143.122 20.2571 143.077 20.1213C142.811 19.1366 142.531 18.1362 142.312 17.1358C142.138 16.1807 142.175 15.1987 142.422 14.2597C142.498 14.0279 142.614 13.8111 142.765 13.6188C142.965 13.2496 143.246 12.9302 143.586 12.6841C143.926 12.4379 144.317 12.2712 144.73 12.1963C145.774 12.0088 146.788 11.6805 147.848 11.4617C148.777 11.2277 149.745 11.1957 150.687 11.3679C151.675 11.6064 152.541 12.2019 153.119 13.0404C153.285 13.3099 153.479 13.5614 153.696 13.7907C153.848 13.9318 153.962 14.1088 154.027 14.3055C154.093 14.5021 154.108 14.7122 154.071 14.9162C153.93 15.8541 153.821 16.8075 153.634 17.7298C153.454 18.7658 153.066 19.7547 152.496 20.6372C152.414 20.7675 152.341 20.9032 152.277 21.0436C152.228 21.1749 152.149 21.2935 152.048 21.3905C151.947 21.4875 151.825 21.5604 151.692 21.604C151.559 21.6475 151.417 21.6605 151.278 21.6419C151.14 21.6234 151.007 21.5738 150.889 21.4969C150.711 21.3933 150.539 21.2784 150.375 21.153C150.11 21.4656 149.829 21.7626 149.579 22.0752C149.33 22.3878 149.08 22.8099 148.831 23.185C148.754 23.294 148.686 23.409 148.628 23.5289C148.316 24.1385 148.519 24.3417 149.096 24.3261C149.433 24.3452 149.765 24.4192 150.078 24.5449C150.437 24.67 150.515 24.9201 150.297 25.2483C150.179 25.3923 150.036 25.5141 149.876 25.6079L148.737 26.3269C148.679 26.3517 148.626 26.3887 148.582 26.4354C148.539 26.4822 148.505 26.5377 148.485 26.5982C148.464 26.6587 148.456 26.723 148.462 26.7867C148.468 26.8504 148.488 26.9121 148.519 26.9677C148.963 27.0917 149.432 27.0917 149.876 26.9677L151.435 26.4988C151.628 26.4436 151.827 26.4122 152.028 26.4051C152.542 26.4051 152.73 26.6864 152.449 27.1084C152.338 27.3003 152.176 27.4573 151.981 27.5617L148.987 29.1248L145.634 30.7817L143.201 31.9228C143.014 32.0166 142.843 32.126 142.656 32.2042L141.096 32.8451L140.426 33.142C140.331 33.2129 140.22 33.2586 140.103 33.275C139.986 33.2914 139.867 33.2779 139.756 33.2358C139.646 33.1937 139.548 33.1244 139.471 33.0342C139.395 32.9441 139.342 32.836 139.318 32.72C139.206 32.4477 139.173 32.1492 139.222 31.8588C139.272 31.5684 139.403 31.298 139.599 31.0787C139.694 30.938 139.826 30.8259 139.98 30.7543C140.133 30.6827 140.304 30.6544 140.472 30.6723C141.09 30.7048 141.703 30.5525 142.234 30.2346C143.186 29.7501 144.137 29.2812 145.073 28.781C145.229 28.6403 145.509 28.5465 145.525 28.1401ZM149.268 16.9951C149.408 17.1639 149.486 17.3769 149.486 17.5969C149.486 17.8169 149.408 18.03 149.268 18.1987L148.94 18.8552L148.581 19.4961L150.141 19.8712C150.202 19.897 150.269 19.9071 150.336 19.9006C150.402 19.8941 150.466 19.8714 150.522 19.8342C150.577 19.7971 150.623 19.7468 150.654 19.6878C150.686 19.6289 150.702 19.563 150.702 19.4961C150.775 18.9414 150.817 18.383 150.827 17.8235C150.827 16.8544 150.359 16.5418 149.455 16.8857L149.268 16.9951Z" fill="#000"/>
<path d="M156.784 21.403L156.394 21.278C155.131 21.0279 154.835 20.0901 154.975 19.0271C155.116 17.9642 155.349 17.8704 156.301 17.6672C156.682 17.5709 157.046 17.4125 157.377 17.1983C157.531 17.0534 157.641 16.8685 157.696 16.6642C157.751 16.46 157.749 16.2444 157.689 16.0416C157.597 15.91 157.456 15.8201 157.299 15.7915C156.425 15.6821 156.191 15.4163 156.16 14.541C156.15 14.3516 156.124 14.1634 156.082 13.9783C156.041 13.8344 156.042 13.6819 156.083 13.5382C156.124 13.3944 156.205 13.2653 156.316 13.1655C157.002 12.4726 157.785 11.8828 158.64 11.4148C159.002 11.1786 159.424 11.053 159.856 11.053C160.288 11.053 160.711 11.1786 161.073 11.4148C161.587 11.8212 162.164 12.1338 162.632 12.5558C162.836 12.7198 163.002 12.9265 163.117 13.1614C163.233 13.3963 163.296 13.6538 163.303 13.9157C163.319 14.1666 163.267 14.4173 163.152 14.6405C163.036 14.8637 162.862 15.051 162.648 15.1819C162.036 15.6584 161.509 16.2343 161.088 16.8856C160.821 17.2211 160.512 17.5206 160.168 17.7766C159.973 17.927 159.816 18.1216 159.711 18.3443C159.605 18.5671 159.553 18.8118 159.56 19.0584C159.58 19.4176 159.58 19.7777 159.56 20.1369C159.903 20.1369 160.215 20.1369 160.511 20.0431C161.478 19.8556 162.445 19.6367 163.412 19.4804C163.801 19.4414 164.192 19.4414 164.581 19.4804C164.971 19.4804 165.377 19.4804 165.766 19.4804C166.671 19.4022 167.03 20.0119 167.076 20.7309C167.115 21.0232 167.078 21.3205 166.968 21.5942C166.859 21.868 166.682 22.1089 166.453 22.294C165.558 23.056 164.586 23.7214 163.552 24.2792C162.991 24.5331 162.366 24.6147 161.759 24.5136C161.509 24.5136 161.416 24.3104 161.556 24.1072C161.734 23.8429 161.943 23.6013 162.18 23.3882C162.507 23.0912 162.85 22.8098 163.209 22.5285C163.342 22.4117 163.449 22.2674 163.522 22.1056C163.594 21.9437 163.631 21.7681 163.63 21.5906C163.07 21.3646 162.444 21.3646 161.883 21.5906C161.041 21.9032 160.215 22.2471 159.388 22.5754C159.268 22.6446 159.154 22.723 159.045 22.8098C159.279 23.0443 159.482 23.2631 159.7 23.4507C159.997 23.7434 160.185 24.1299 160.23 24.5449C160.402 25.6547 160.574 26.7645 160.807 27.8587C161.048 28.9194 161.112 30.0129 160.995 31.0943C160.908 32.0836 160.688 33.0564 160.34 33.9861C160.272 34.1402 160.188 34.2869 160.09 34.4237C159.927 34.6737 159.674 34.8517 159.385 34.9214C159.095 34.9911 158.789 34.9473 158.531 34.7989C157.902 34.5556 157.36 34.1314 156.971 33.5797C156.317 32.6701 155.586 31.8177 154.788 31.0318C154.515 30.7867 154.32 30.4657 154.228 30.1096C154.137 29.7535 154.152 29.3782 154.273 29.031C154.398 28.6403 154.632 28.4996 155.006 28.6871C155.601 28.9635 156.255 29.087 156.909 29.0466C156.968 29.0531 157.028 29.0478 157.086 29.0308C157.143 29.0138 157.197 28.9856 157.243 28.9478C157.289 28.91 157.328 28.8634 157.356 28.8106C157.384 28.7578 157.402 28.6999 157.408 28.6403C157.736 27.5087 157.811 26.3183 157.626 25.1545C157.553 24.8223 157.449 24.4978 157.314 24.1854C157.299 24.1211 157.269 24.0612 157.226 24.0107C157.184 23.9602 157.13 23.9204 157.069 23.8946C157.009 23.8687 156.943 23.8576 156.877 23.8619C156.811 23.8663 156.747 23.886 156.691 23.9196C155.881 24.217 155.116 24.6218 154.414 25.1233C154.18 25.3265 153.884 25.4827 153.65 25.686C153.485 25.8289 153.275 25.9076 153.057 25.9076C152.839 25.9076 152.629 25.8289 152.464 25.686C152.272 25.5797 152.126 25.4059 152.054 25.1981C151.982 24.9904 151.989 24.7633 152.075 24.5605C152.138 24.3236 152.251 24.1033 152.408 23.9144C152.564 23.7256 152.759 23.5728 152.979 23.4664L153.54 23.2163C153.968 23.0829 154.361 22.859 154.694 22.5597C154.901 22.3982 155.133 22.2715 155.381 22.1846L156.784 21.403Z" fill="#000"/>
<path d="M181.221 16.4636C181.128 16.9161 180.959 17.3496 180.722 17.7453C180.197 18.4302 179.854 19.2367 179.724 20.09C179.528 20.9484 179.224 21.7782 178.819 22.5597C178.18 23.7789 177.494 24.9825 176.807 26.1861C176.449 26.827 175.981 26.8739 175.451 26.3737C174.92 25.8735 174.983 25.9673 174.484 26.2799C173.985 26.5925 173.299 27.0615 172.69 27.421C172.285 27.6502 171.863 27.8488 171.427 28.015C171.336 28.0665 171.234 28.0973 171.129 28.1052C171.025 28.1131 170.92 28.0979 170.822 28.0606C170.723 28.0234 170.635 27.965 170.561 27.8896C170.488 27.8142 170.432 27.7236 170.398 27.6242C170.315 27.497 170.247 27.3606 170.195 27.2178C170.093 27.0266 170.064 26.8039 170.116 26.593C170.168 26.3821 170.296 26.1981 170.476 26.0767C171.287 25.4202 171.287 25.3733 170.772 24.5136C170.129 23.438 169.715 22.2405 169.556 20.9966C169.447 20.3557 169.353 19.6992 169.228 19.0583C169.174 18.4234 169.31 17.7867 169.618 17.2295C169.633 17.1836 169.659 17.142 169.693 17.1082C169.727 17.0745 169.769 17.0496 169.815 17.0358C169.861 17.0219 169.91 17.0195 169.957 17.0288C170.004 17.038 170.049 17.0586 170.086 17.0888C170.35 17.262 170.578 17.485 170.757 17.7453C171.084 18.2455 171.334 18.7926 171.63 19.3084C171.926 19.8243 172.113 19.8399 172.613 19.6054C173.119 19.3605 173.64 19.1464 174.172 18.9646C174.534 18.875 174.906 18.8329 175.279 18.8395C175.778 18.8395 175.981 18.6988 176.074 18.3237C176.108 18.2336 176.123 18.1374 176.117 18.0414C176.111 17.9454 176.085 17.8517 176.041 17.7662C175.997 17.6808 175.936 17.6056 175.861 17.5454C175.786 17.4853 175.699 17.4416 175.607 17.4171C174.949 17.1455 174.355 16.7411 173.86 16.2291C173.759 16.1471 173.678 16.0434 173.622 15.9258C173.566 15.8081 173.537 15.6795 173.537 15.5492C173.537 15.4189 173.566 15.2902 173.622 15.1726C173.678 15.0549 173.759 14.9513 173.86 14.8692C174.424 14.323 175.085 13.8881 175.809 13.5875C175.916 13.5525 176.02 13.5108 176.121 13.4624C176.34 13.2793 176.616 13.179 176.901 13.179C177.186 13.179 177.462 13.2793 177.681 13.4624C178.296 13.8134 178.957 14.0765 179.646 14.2439C180.058 14.4708 180.414 14.7884 180.687 15.1728C180.96 15.5572 181.142 15.9985 181.221 16.4636ZM175.201 21.1529C175.045 21.1529 174.983 21.1529 174.936 21.1529C174.363 21.4954 173.726 21.7187 173.065 21.8094C173.021 21.8125 172.978 21.8252 172.94 21.8468C172.902 21.8683 172.869 21.8981 172.844 21.934C172.818 21.9699 172.801 22.011 172.793 22.0543C172.786 22.0977 172.788 22.1422 172.8 22.1846C172.863 22.7106 172.956 23.2326 173.08 23.7477C173.099 23.8255 173.135 23.8983 173.184 23.9613C173.233 24.0243 173.295 24.076 173.366 24.113C173.437 24.15 173.515 24.1714 173.595 24.1758C173.675 24.1801 173.754 24.1674 173.829 24.1384C174.889 23.8884 175.154 23.5132 175.186 22.7629C175.186 22.7629 175.186 22.6535 175.186 22.6066C175.248 22.1453 175.254 21.678 175.201 21.2154V21.1529Z" fill="#000"/>
<path d="M201.68 23.2475C201.774 23.2934 201.874 23.325 201.977 23.3413C202.694 23.3413 203.396 23.3413 204.113 23.3413C204.831 23.3413 205.064 22.9193 205.298 22.4034C205.673 21.5594 206.172 21.4343 206.951 21.9345C207.226 22.0757 207.441 22.3117 207.555 22.599C207.67 22.8863 207.677 23.2055 207.575 23.4976C207.474 23.9366 207.349 24.3697 207.201 24.795C207.154 24.9383 207.058 25.06 206.929 25.1375C206.8 25.2151 206.647 25.2433 206.499 25.2171C206.107 25.233 205.716 25.1747 205.345 25.0451C204.744 24.7834 204.07 24.7446 203.443 24.9357C202.261 25.2146 201.119 25.6399 200.043 26.2018C198.883 26.7014 197.661 27.0431 196.41 27.2178C196.279 27.2515 196.141 27.2327 196.025 27.1655C195.908 27.0983 195.822 26.9881 195.786 26.8583C195.627 26.4389 195.492 26.0109 195.38 25.5766C195.35 25.4436 195.35 25.3056 195.38 25.1725C195.409 25.0394 195.468 24.9145 195.551 24.8069C195.635 24.6992 195.741 24.6115 195.863 24.55C195.984 24.4885 196.118 24.4547 196.254 24.4512C196.905 24.4155 197.549 24.3 198.172 24.1073C198.485 24.0335 198.773 23.8773 199.006 23.6547C199.239 23.4322 199.409 23.1513 199.497 22.8411C199.388 22.5441 199.092 22.5129 198.827 22.4347L198.172 22.2941C197.954 22.243 197.752 22.1373 197.586 21.987C197.419 21.8367 197.294 21.6465 197.22 21.4343C197.148 21.2227 197.037 21.0265 196.893 20.856C196.578 20.4926 196.372 20.0478 196.297 19.5724C196.223 19.0969 196.283 18.61 196.472 18.1674C197.049 16.5969 197.977 15.1798 199.185 14.0252L199.996 13.2593C200.379 12.9032 200.855 12.6645 201.369 12.5715C201.586 12.5101 201.818 12.521 202.029 12.6027C202.24 12.6845 202.418 12.8326 202.538 13.0248C202.944 13.6478 203.269 14.3202 203.505 15.0256C203.579 15.2666 203.57 15.5255 203.479 15.7608C203.389 15.996 203.222 16.194 203.006 16.323L201.992 16.7919C201.925 16.8248 201.866 16.873 201.821 16.9326C201.493 17.339 201.166 17.7454 200.87 18.1674C200.573 18.5895 200.589 18.5426 200.76 18.7927C200.862 18.8872 200.99 18.9471 201.127 18.964C201.265 18.9808 201.404 18.9537 201.525 18.8864C201.852 18.6989 202.148 18.4957 202.46 18.2769C202.772 18.058 203.24 17.636 203.661 17.3546C203.856 17.2194 204.081 17.1336 204.316 17.1045C204.736 17.1101 205.147 17.2238 205.51 17.4346C205.873 17.6453 206.176 17.9461 206.39 18.3081C206.64 18.8396 206.515 19.1053 206.047 19.4335C204.708 20.2157 203.468 21.155 202.351 22.2315C202.052 22.5136 201.822 22.8614 201.68 23.2475Z" fill="#000"/>
<path d="M126.188 23.9196C126.188 22.6379 126.188 21.3718 126.063 20.1369C125.999 18.8792 125.703 17.6443 125.19 16.4948C125.074 16.164 125.037 15.8109 125.081 15.4632C125.081 15.1662 125.361 15.0255 125.626 14.963C125.749 14.9139 125.884 14.904 126.012 14.9348C126.141 14.9656 126.257 15.0355 126.344 15.1349C126.842 15.6943 127.233 16.3407 127.498 17.0419C127.825 18.2612 128.215 19.4491 128.496 20.6684C128.642 21.4748 128.74 22.2889 128.792 23.1068C128.87 23.8727 128.979 24.6699 129.042 25.3889C129.073 25.7791 129.073 26.1711 129.042 26.5613C129.042 27.5773 128.901 28.5777 128.823 29.5781C128.786 30.4631 128.499 31.3193 127.997 32.0478C127.926 32.1705 127.83 32.2767 127.715 32.3594C127.6 32.4421 127.469 32.4993 127.331 32.5274C127.192 32.5555 127.049 32.5537 126.911 32.5222C126.773 32.4908 126.644 32.4303 126.531 32.3448C125.817 31.8914 125.188 31.3146 124.675 30.641C124.129 29.9845 123.677 29.2498 123.116 28.5464C122.936 28.2847 122.779 28.0075 122.648 27.718C122.592 27.5027 122.592 27.2768 122.648 27.0615C122.664 26.9884 122.695 26.9193 122.739 26.8587C122.783 26.7981 122.839 26.7472 122.903 26.7091C122.967 26.671 123.039 26.6466 123.113 26.6373C123.187 26.628 123.262 26.634 123.334 26.6551C123.833 26.6551 124.332 26.7645 124.893 26.8583C125.067 26.897 125.248 26.8727 125.405 26.7896C125.563 26.7066 125.685 26.5703 125.751 26.405C126.007 25.9232 126.146 25.3876 126.157 24.8419C126.188 24.5293 126.188 24.201 126.188 23.9196Z" fill="#000"/>
<path d="M119.077 21.0905C119.747 21.0905 119.856 21.0905 120.028 21.7157C120.276 22.4794 120.479 23.2571 120.636 24.0448C120.714 24.4474 120.714 24.8613 120.636 25.264C120.395 26.4609 119.94 27.6045 119.295 28.6403C119.214 28.7761 119.105 28.8935 118.977 28.9849C118.848 29.0764 118.701 29.14 118.547 29.1717C118.302 29.2556 118.066 29.3656 117.845 29.5C117.05 29.9533 116.675 30.0471 115.88 29.4062C114.961 28.7408 114.327 27.753 114.102 26.6395C113.977 25.9361 113.853 25.2484 113.759 24.545C113.666 23.8416 114.102 23.7165 114.476 23.482C114.966 23.1519 115.489 22.8742 116.036 22.6536C116.697 22.3558 117.315 21.9722 117.876 21.5125C118.214 21.2344 118.639 21.0849 119.077 21.0905Z" fill="#000"/>
<path d="M132.909 22.9037C132.921 22.2854 132.978 21.6689 133.081 21.0592C133.205 20.6257 133.405 20.218 133.673 19.8556C133.728 19.7869 133.796 19.7304 133.874 19.69C133.952 19.6496 134.038 19.6261 134.125 19.6211C134.876 19.5227 135.638 19.6845 136.285 20.0797C136.932 20.4748 137.424 21.0797 137.681 21.7939C138.146 22.8816 138.308 24.0756 138.149 25.2483C138.149 25.4515 138.149 25.6703 138.149 25.8736C138.18 26.2428 138.18 26.6141 138.149 26.9834C138.035 27.5692 137.889 28.1484 137.712 28.7184C137.592 29.0831 137.389 29.4145 137.118 29.686C136.847 29.9574 136.517 30.1614 136.153 30.2815C135.934 30.3753 135.794 30.2815 135.7 30.0783C135.42 29.625 135.155 29.1405 134.89 28.6715L134.001 27.1084V27.0146C133.669 26.3253 133.383 25.6152 133.143 24.8888C133.004 24.2358 132.925 23.5712 132.909 22.9037Z" fill="#000"/>
<path d="M199.482 29.8907C199.452 30.1886 199.357 30.4762 199.203 30.7329C199.049 30.9896 198.841 31.2091 198.593 31.3757C197.969 31.8134 197.314 32.2042 196.659 32.5949C196.59 32.6251 196.516 32.6406 196.441 32.6406C196.366 32.6406 196.291 32.6251 196.222 32.5949C195.455 32.4253 194.765 32.0079 194.258 31.407C194.258 31.407 194.148 31.2819 194.148 31.2194C194.06 30.6296 194.019 30.0338 194.024 29.4374C194.04 29.2102 194.134 28.9957 194.291 28.8304C194.447 28.665 194.656 28.5592 194.881 28.5308C195.617 28.3891 196.327 28.1361 196.987 27.7805C197.089 27.7152 197.208 27.6805 197.33 27.6805C197.451 27.6805 197.57 27.7152 197.673 27.7805L198.78 28.4214C199.02 28.578 199.213 28.798 199.337 29.0572C199.461 29.3164 199.511 29.6048 199.482 29.8907Z" fill="#000"/>
<path d="M200.885 29.4218C200.885 28.7653 200.745 27.9838 200.651 27.2178C200.651 26.9208 200.558 26.5769 200.823 26.3737C200.967 26.282 201.135 26.2334 201.306 26.2334C201.477 26.2334 201.645 26.282 201.79 26.3737C202.036 26.4703 202.251 26.6317 202.413 26.8408C202.575 27.0499 202.677 27.299 202.71 27.5617C202.768 28.0204 202.857 28.4747 202.975 28.9216C202.983 28.9943 202.983 29.0678 202.975 29.1405C202.928 30.2784 202.803 31.4117 202.601 32.5324C202.486 32.9457 202.323 33.3443 202.117 33.7204C201.836 34.2518 201.415 34.2987 200.854 34.0174C200.493 33.8421 200.173 33.5908 199.918 33.2806C199.662 32.9704 199.476 32.6085 199.373 32.2198C199.325 32.0193 199.325 31.8106 199.373 31.6102C199.386 31.5004 199.437 31.3987 199.517 31.3219C199.596 31.2452 199.699 31.198 199.809 31.1881C200.667 31.0318 200.885 30.7661 200.901 29.8907L200.885 29.4218Z" fill="#000"/>
<path d="M56.0766 23.6179C56.0468 23.6641 55.9793 23.664 55.9502 23.6174C55.7143 23.2397 55.5051 22.8461 55.3241 22.4395C55.2903 22.3634 55.1709 22.3872 55.1709 22.4704V29.6277C55.1709 29.6694 55.1371 29.7032 55.0954 29.7032H53.9052C53.8635 29.7032 53.8297 29.6694 53.8297 29.6277V23.5968C53.8297 23.5035 53.6533 23.4857 53.6298 23.576C53.4229 24.3712 53.1154 25.1379 52.7137 25.857C52.688 25.903 52.6243 25.9085 52.5906 25.868L51.7002 24.794C51.6779 24.7671 51.677 24.7284 51.6979 24.7004C52.5785 23.5162 53.2249 22.1743 53.6025 20.7469C53.6151 20.6993 53.579 20.6528 53.5297 20.6528H52.143C52.1013 20.6528 52.0675 20.619 52.0675 20.5773V19.4622C52.0675 19.4205 52.1013 19.3867 52.143 19.3867H53.801C53.8427 19.3867 53.8765 19.3529 53.8765 19.3112V17.0863C53.8765 17.0446 53.9103 17.0108 53.952 17.0108H55.1421C55.1838 17.0108 55.2176 17.0446 55.2176 17.0863V19.3112C55.2176 19.3529 55.2514 19.3867 55.2931 19.3867H56.7016C56.7433 19.3867 56.7771 19.4205 56.7771 19.4622V20.5773C56.7771 20.619 56.7433 20.6528 56.7016 20.6528H55.4874C55.4296 20.6528 55.3933 20.715 55.4227 20.7648C55.7856 21.3786 56.2471 21.9283 56.7886 22.3917C56.8176 22.4165 56.824 22.4588 56.8034 22.4908L56.0766 23.6179ZM63.3999 28.502C63.3705 28.5407 63.3127 28.5419 63.2819 28.5042C62.4111 27.4351 61.7308 26.2246 61.2699 24.9261C61.2409 24.8445 61.1124 24.865 61.1124 24.9516V29.6277C61.1124 29.6694 61.0785 29.7032 61.0368 29.7032H59.8467C59.805 29.7032 59.7712 29.6694 59.7712 29.6277V24.8184C59.7712 24.7334 59.6466 24.7112 59.615 24.7901C59.0528 26.1963 58.1781 27.4574 57.0557 28.4766C57.0233 28.506 56.9726 28.5013 56.9458 28.4666L56.1381 27.4198C56.1122 27.3862 56.1191 27.3379 56.153 27.3125C57.3452 26.4201 58.2861 25.2333 58.8841 23.868C58.9058 23.8185 58.8693 23.7634 58.8152 23.7634H56.915C56.8733 23.7634 56.8395 23.7296 56.8395 23.6879V22.6041C56.8395 22.5624 56.8733 22.5285 56.915 22.5285H59.6957C59.7374 22.5285 59.7712 22.4947 59.7712 22.453V20.4001C59.7712 20.3584 59.7374 20.3246 59.6957 20.3246H58.4225C58.3898 20.3246 58.3609 20.3455 58.3507 20.3765C58.1367 21.0253 57.8512 21.7571 57.7502 22.0126C57.7316 22.0595 57.6731 22.075 57.6335 22.0436L56.6375 21.2533C56.6097 21.2312 56.6011 21.1928 56.6165 21.1609C57.1872 19.9793 57.5788 18.7189 57.7783 17.4215C57.7851 17.3774 57.8283 17.3484 57.8716 17.3593L58.9629 17.6328C59.0042 17.6431 59.0288 17.6854 59.0176 17.7264C58.8947 18.1755 58.7828 18.6791 58.6603 19.1181C58.6467 19.1666 58.683 19.2148 58.7333 19.2148H59.6957C59.7374 19.2148 59.7712 19.181 59.7712 19.1393V17.1332C59.7712 17.0915 59.805 17.0577 59.8467 17.0577H61.0368C61.0785 17.0577 61.1124 17.0915 61.1124 17.1332V19.1393C61.1124 19.181 61.1462 19.2148 61.1879 19.2148H63.5319C63.5736 19.2148 63.6074 19.2486 63.6074 19.2903V20.249C63.6074 20.2908 63.5736 20.3246 63.5319 20.3246H61.1879C61.1462 20.3246 61.1124 20.3584 61.1124 20.4001V22.4374C61.1124 22.4791 61.1462 22.5129 61.1879 22.5129H64.0153C64.057 22.5129 64.0908 22.5467 64.0908 22.5884V23.6723C64.0908 23.714 64.057 23.7478 64.0153 23.7478H62.0338C61.9806 23.7478 61.9441 23.8013 61.9641 23.8505C62.4822 25.1309 63.2763 26.2809 64.2895 27.218C64.3182 27.2446 64.3223 27.2886 64.2986 27.3198L63.3999 28.502Z" fill="#000"/>
<path d="M76.4479 29.5781C76.4437 29.5781 76.4395 29.5777 76.4354 29.577C76.1357 29.5255 75.8527 29.4028 75.61 29.219C75.3657 29.0339 75.1695 28.7925 75.0382 28.5151C73.777 26.2815 73.0474 23.7865 72.9056 21.2246C72.9033 21.1844 72.8702 21.1529 72.83 21.1529H65.9754C65.9337 21.1529 65.8999 21.1191 65.8999 21.0774V19.9779C65.8999 19.9362 65.9337 19.9024 65.9754 19.9024H72.7171C72.7588 19.9024 72.7926 19.8686 72.7926 19.8269C72.7926 18.981 72.7926 18.0927 72.7926 17.1488C72.7926 17.107 72.8264 17.0732 72.8681 17.0732H74.1361C74.1778 17.0732 74.2116 17.107 74.2116 17.1488C74.2116 18.107 74.2116 19.0085 74.2116 19.8269C74.2116 19.8686 74.2454 19.9024 74.2871 19.9024H77.9724C78.0141 19.9024 78.0479 19.9362 78.0479 19.9779V21.0774C78.0479 21.1191 78.0141 21.1529 77.9724 21.1529H74.3998C74.3568 21.1529 74.3224 21.1889 74.3246 21.2319C74.4369 23.4359 75.0375 25.5875 76.083 27.5304C76.2389 27.8117 76.3481 27.9681 76.4572 27.9681C76.5631 27.9681 76.8301 27.4246 77.2157 26.0386C77.2317 25.9809 77.3052 25.9636 77.3451 26.0081L78.3165 27.0931C78.3337 27.1123 78.3398 27.1396 78.3327 27.1644C77.8353 28.8952 77.0963 29.5737 76.4479 29.5781ZM72.4984 27.9579C72.4971 27.9917 72.4736 28.0205 72.4408 28.0285C70.5003 28.5003 68.536 28.8686 66.5566 29.1319C66.5196 29.1368 66.4847 29.114 66.4742 29.0783L66.1439 27.9468C66.1305 27.9012 66.1622 27.8547 66.2096 27.8502C67.0302 27.7727 67.838 27.6417 68.659 27.5094C68.6955 27.5035 68.7225 27.4719 68.7225 27.4348V24.4484C68.7225 24.4067 68.6887 24.3729 68.6469 24.3729H66.6771C66.6354 24.3729 66.6015 24.3391 66.6015 24.2974V23.1823C66.6015 23.1406 66.6354 23.1068 66.6771 23.1068H72.1712C72.2129 23.1068 72.2467 23.1406 72.2467 23.1823V24.2974C72.2467 24.3391 72.2129 24.3729 72.1712 24.3729H70.1235C70.0818 24.3729 70.0479 24.4067 70.0479 24.4484V27.2369C70.0479 27.2839 70.091 27.3195 70.1373 27.311C71.3467 27.0889 72.1653 26.8609 72.4407 26.7798C72.4908 26.765 72.541 26.8038 72.5391 26.856L72.4984 27.9579ZM76.6283 19.6626C76.5949 19.6908 76.5445 19.6847 76.5184 19.6496C76.0468 19.0135 75.5063 18.432 74.9066 17.9155C74.8702 17.8841 74.8715 17.8271 74.9097 17.7977L75.7233 17.1724C75.7512 17.151 75.7904 17.1517 75.8174 17.1743C76.4216 17.6794 76.9841 18.2327 77.4993 18.8287C77.5267 18.8604 77.5228 18.9084 77.4907 18.9354L76.6283 19.6626Z" fill="#000"/>
<path d="M92.0651 21.8235C92.0487 21.8596 92.0072 21.877 91.97 21.863C89.8638 21.0721 87.9377 19.8651 86.3057 18.3138C86.2753 18.2849 86.2271 18.2862 86.1982 18.3166C84.6152 19.9793 82.6698 21.2524 80.5142 22.0362C80.4776 22.0495 80.4368 22.0325 80.4203 21.9971L79.8479 20.7655C79.8282 20.723 79.8516 20.6729 79.8967 20.6604C82.1254 20.0431 84.119 18.7705 85.6197 17.0062C85.6341 16.9893 85.6552 16.9795 85.6774 16.9795H86.7178C86.7381 16.9795 86.7576 16.9877 86.7718 17.0021C88.3804 18.6385 90.3704 19.847 92.5616 20.5183C92.6053 20.5317 92.6275 20.5804 92.6086 20.6221L92.0651 21.8235ZM90.9126 29.6387C90.8803 29.6725 90.8255 29.6691 90.7974 29.6318C90.4984 29.235 90.2111 28.8768 89.9114 28.5454C89.8943 28.5265 89.8689 28.5176 89.8437 28.5216C86.9719 28.9781 84.0741 29.252 81.1678 29.3417C81.1311 29.3429 81.099 29.3175 81.0916 29.2816L80.858 28.1528C80.8483 28.1059 80.8841 28.0619 80.932 28.0619H82.0092C82.029 28.0619 82.048 28.0542 82.062 28.0404C82.8917 27.224 83.6034 26.2955 84.1764 25.2819C84.2047 25.2318 84.1684 25.1702 84.1109 25.1702H80.712C80.6703 25.1702 80.6365 25.1364 80.6365 25.0947V24.0265C80.6365 23.9848 80.6703 23.951 80.712 23.951H91.8046C91.8463 23.951 91.8801 23.9848 91.8801 24.0265V25.0947C91.8801 25.1364 91.8463 25.1702 91.8046 25.1702H86.0005C85.9721 25.1702 85.9462 25.1861 85.9331 25.2113C85.4384 26.1692 84.8172 27.0557 84.0864 27.847C84.0403 27.897 84.0775 27.9784 84.1454 27.9752C85.7226 27.9 87.2953 27.7479 88.8578 27.5195C88.9171 27.5108 88.9429 27.44 88.9027 27.3957C88.5458 27.0013 88.1601 26.6342 87.7488 26.2973C87.7095 26.2652 87.7119 26.2042 87.7538 26.1757L88.7439 25.5003C88.7725 25.4808 88.8106 25.4832 88.8364 25.5061C89.9069 26.4551 90.9185 27.4687 91.8656 28.5415C91.8915 28.5708 91.8906 28.6151 91.8635 28.6434L90.9126 29.6387ZM82.8485 22.4503C82.8067 22.4503 82.7729 22.4165 82.7729 22.3748V21.291C82.7729 21.2493 82.8067 21.2155 82.8485 21.2155H89.9801C90.0218 21.2155 90.0556 21.2493 90.0556 21.291V22.3748C90.0556 22.4165 90.0218 22.4503 89.9801 22.4503H82.8485Z" fill="#000"/>
<path d="M99.2599 25.1298C99.2334 25.1676 99.1795 25.1729 99.1463 25.1408C98.7198 24.7289 98.3231 24.2871 97.9592 23.8188C97.9147 23.7615 97.8216 23.7927 97.8216 23.8653V29.6277C97.8216 29.6694 97.7878 29.7032 97.7461 29.7032H96.634C96.5923 29.7032 96.5585 29.6694 96.5585 29.6277V24.2965C96.5585 24.2305 96.4795 24.196 96.4306 24.2402C95.8812 24.7361 95.2836 25.1755 94.6467 25.552C94.6094 25.574 94.5614 25.5598 94.5417 25.5213L93.9896 24.4422C93.9702 24.4043 93.986 24.3579 94.0243 24.3393C95.7558 23.4992 97.2188 22.1916 98.2491 20.5642C98.2807 20.5143 98.2446 20.4496 98.1856 20.4496H94.7782C94.7365 20.4496 94.7027 20.4158 94.7027 20.3741V19.259C94.7027 19.2173 94.7365 19.1835 94.7782 19.1835H96.483C96.5247 19.1835 96.5585 19.1497 96.5585 19.108V17.1019C96.5585 17.0602 96.5923 17.0264 96.634 17.0264H97.8241C97.8658 17.0264 97.8996 17.0602 97.8996 17.1019V19.108C97.8996 19.1497 97.9334 19.1835 97.9751 19.1835H99.6018C99.6435 19.1835 99.6774 19.2173 99.6774 19.259V20.4159C99.6774 20.4278 99.6746 20.4395 99.6692 20.4501C99.2832 21.2077 98.8103 21.9175 98.2604 22.5652C98.2334 22.5969 98.2369 22.6444 98.2684 22.6715C98.8121 23.1379 99.3906 23.562 99.9988 23.94C100.036 23.963 100.046 24.0124 100.021 24.048L99.2599 25.1298ZM99.2849 29.0625C99.2432 29.0624 99.2095 29.0286 99.2095 28.987V27.8874C99.2095 27.8457 99.2433 27.8119 99.285 27.8119H102.253C102.295 27.8119 102.328 27.7781 102.328 27.7364V22.6978C102.328 22.6561 102.295 22.6223 102.253 22.6223H99.9868C99.9451 22.6223 99.9113 22.5885 99.9113 22.5468V21.4317C99.9113 21.39 99.9451 21.3562 99.9868 21.3562H102.253C102.295 21.3562 102.328 21.3224 102.328 21.2807V17.1175C102.328 17.0758 102.362 17.042 102.404 17.042H103.594C103.636 17.042 103.67 17.0758 103.67 17.1175V21.2807C103.67 21.3224 103.703 21.3562 103.745 21.3562H106.167C106.209 21.3562 106.243 21.39 106.243 21.4317V22.5468C106.243 22.5885 106.209 22.6223 106.167 22.6223H103.745C103.703 22.6223 103.67 22.6561 103.67 22.6978V27.7364C103.67 27.7781 103.703 27.8119 103.745 27.8119H106.448C106.49 27.8119 106.523 27.8457 106.523 27.8874V29.0023C106.523 29.0441 106.489 29.0779 106.448 29.0778L99.2849 29.0625Z" fill="#000"/>
</g>
<g clip-path="url(#clip2_1370:1905)">
<path d="M21.1871 45.9643C19.5366 45.9438 16.8426 45.5244 14.3083 44.4803C11.0734 43.1445 8.24738 41.1957 5.91829 38.524C4.66097 37.1074 3.58285 35.5412 2.70828 33.8609C1.98713 32.4459 1.52102 30.9399 1.07837 29.412C0.492063 27.4104 0.364545 25.3766 0.385066 23.3324C0.429742 19.7454 1.30738 16.2178 2.94867 13.0283C3.6446 11.699 4.48411 10.45 5.45217 9.30376C6.11333 8.50492 6.83305 7.75647 7.60537 7.06462C9.52353 5.35163 11.72 3.97894 14.1001 3.00573C17.146 1.78572 20.3017 1.31648 23.5499 1.42939C25.9655 1.49154 28.3508 1.9831 30.5943 2.88109C33.0322 3.84949 35.2811 5.23871 37.2385 6.98544C37.9817 7.65703 38.7439 8.31543 39.339 9.09847C40.409 10.5062 41.5024 11.9007 42.2544 13.5401C42.9345 15.024 43.5648 16.5256 43.9004 18.1078C44.1716 19.3923 44.5424 20.671 44.519 22.0215C44.4984 23.1946 44.6128 24.3677 44.5028 25.532C44.3486 26.9273 44.1038 28.311 43.77 29.6745C43.5354 30.7009 43.1441 31.6438 42.7337 32.5867C41.8542 34.6088 40.7769 36.5194 39.2789 38.1588C38.0933 39.4832 36.7903 40.6974 35.3858 41.7866C33.4739 43.2246 31.3269 44.3196 29.0406 45.0229C26.8507 45.7165 24.5788 45.9555 21.1871 45.9643ZM39.5647 31.1027C39.657 30.9751 39.7259 30.8915 39.7816 30.7992C39.8615 30.6763 39.9315 30.5473 39.9912 30.4135C40.9035 28.2131 41.3564 25.8493 41.3221 23.4673C41.2601 21.0977 40.7736 18.7585 39.8857 16.5608C38.6252 13.367 36.5482 10.8082 33.8761 8.72601C32.4104 7.58371 30.7555 6.74935 29.0113 6.06603C27.5798 5.51909 26.0876 5.14688 24.5671 4.95746C23.0691 4.75657 21.5535 4.84748 20.0408 5.03958C16.7714 5.44884 13.6677 6.71331 11.0426 8.70548C10.2086 9.33015 9.46835 10.0663 8.71935 10.7994C7.78846 11.7184 6.97957 12.7534 6.31258 13.8788C4.49651 16.9186 3.6068 20.2487 3.56429 23.8002C3.56181 25.0347 3.70498 26.2652 3.99082 27.4661C4.23853 28.5512 4.51996 29.6217 5.01685 30.6232C5.27189 31.1364 5.41554 31.1526 5.71748 30.6716C6.30379 29.7316 6.9106 28.8005 7.45293 27.8283C8.8542 25.3208 10.4328 22.9175 11.818 20.3983C12.5963 18.9847 13.4464 17.6048 14.2584 16.2089C14.9913 14.9405 15.7506 13.6808 16.4571 12.3963C16.6593 12.0224 16.9759 11.7731 17.3834 11.8494C17.7909 11.9256 18.1749 11.8494 18.5692 11.8494C21.4265 11.8376 24.2832 11.8376 27.1395 11.8494C27.7478 11.8494 28.1934 12.0385 28.5217 12.6544C29.6401 14.7528 30.9592 16.7367 32.0849 18.8351C32.9497 20.4481 33.9904 21.9629 34.8816 23.5627C36.041 25.642 37.3837 27.6128 38.48 29.7214C38.7401 30.2533 39.1097 30.724 39.5647 31.1027ZM38.6574 32.899C38.4009 32.7524 38.1209 32.7993 37.8512 32.7978C35.9296 32.7831 34.0051 32.7436 32.0835 32.7787C31.1219 32.7978 30.54 32.4664 30.1677 31.5426C29.6928 30.3695 29.13 29.2214 28.5657 28.0849C27.4458 25.8341 26.4652 23.5187 25.341 21.2722C24.5788 19.7575 23.9735 18.1635 23.0955 16.703C22.6279 15.9244 22.0812 15.8085 21.5212 16.5241C21.0543 17.1491 20.6516 17.8197 20.3193 18.5257C19.3241 20.5273 18.3684 22.5479 17.3966 24.5598C16.2152 27.0042 14.9972 29.4325 13.87 31.9004C13.4728 32.7685 12.8733 33.0046 12.0144 32.9914C10.2555 32.9635 8.50828 32.9664 6.75523 32.9679C6.24662 32.9679 6.18212 33.0911 6.45329 33.5046C6.63211 33.7759 6.85197 34.0193 7.02933 34.292C7.74693 35.4103 8.60781 36.4298 9.59001 37.3245C10.8065 38.403 12.1278 39.357 13.5344 40.1721C13.7791 40.3188 13.9741 40.5549 14.279 40.6121C15.0719 40.7587 15.7784 41.159 16.5216 41.4435C18.235 42.0975 20.0203 42.3116 21.8203 42.4215C23.4517 42.5198 25.0449 42.2749 26.6573 41.9259C29.4832 41.3159 31.934 39.9903 34.1971 38.2732C35.7889 37.0635 37.0553 35.5282 38.1766 33.8815C38.3657 33.5882 38.631 33.3052 38.6574 32.899Z" fill="#2F9D3A"/>
<path d="M22.2027 19.8894L27.6934 32.3418H16.7295C16.6782 32.0108 16.7326 31.6722 16.8849 31.374C17.521 29.9223 18.1528 28.4662 18.8153 27.0277C19.8413 24.7915 20.7838 22.5171 21.804 20.2824C21.8685 20.1299 21.9095 19.951 22.2027 19.8894Z" fill="#F73320"/>
</g>
</g>
<defs>
<clipPath id="clip0_1370:1905">
<rect width="222" height="45.6837" fill="white" transform="translate(0 0.658173)"/>
</clipPath>
<clipPath id="clip1_1370:1905">
<rect width="170.276" height="24.5408" fill="white" transform="translate(51.7245 10.852)"/>
</clipPath>
<clipPath id="clip2_1370:1905">
<rect width="44.1735" height="44.551" fill="white" transform="translate(0.377563 1.41327)"/>
</clipPath>
</defs>
</svg>
