<svg width="230" height="230" viewBox="0 0 230 230" fill="none" xmlns="http://www.w3.org/2000/svg">
<path d="M175.287 170.357C170.004 155.65 140.067 160.217 140.067 160.217C140.067 160.217 98.3853 164.767 93.7011 165.949C89.0169 167.13 80.4939 167.994 78.4336 178.293C77.2251 184.459 78.3753 190.855 81.6561 196.211L98.1035 198.274L169.123 184.466C169.123 184.466 180.57 184.995 175.287 170.357ZM116.312 193.178L105.288 191.59C105.288 191.59 101.291 190.62 102.664 182.632C104.038 174.643 109.708 173.955 112.913 173.038C116.118 172.121 162.08 167.271 162.08 167.271L163.981 182.455L116.312 193.178Z" fill="white" stroke="#000" stroke-linecap="round" stroke-linejoin="round"/>
<path d="M136.105 168.964L181.01 167.642L196.418 180.427L198.179 200.708L145.791 217.021L129.502 207.762L109.691 214.375L81.9554 197.181L106.01 190.903L107.049 181.256L119.816 171.169L136.105 168.964Z" fill="white" stroke="#000" stroke-linecap="round" stroke-linejoin="round"/>
<path d="M155.476 62.7112L153.715 116.058H159.438L160.759 63.5929L155.476 62.7112Z" fill="white" stroke="#000" stroke-linecap="round" stroke-linejoin="round"/>
<path d="M195.978 69.3245L194.217 122.671H199.94L201.261 70.2062L195.978 69.3245Z" fill="white" stroke="#000" stroke-linecap="round" stroke-linejoin="round"/>
<path d="M108.071 149.283C117.845 145.432 128.135 143.055 138.606 142.229C154.155 141.647 158.329 114.577 159.438 111.667C163.981 99.7629 200.381 103.29 206.104 114.312C210.471 122.724 208.692 147.819 208.446 152.51C207.865 163.973 205.223 172.209 204.343 173.39C203.462 174.572 164.721 181.908 149.453 182.79C134.186 183.672 110.131 177.2 106.908 172.509C103.686 167.818 108.071 149.283 108.071 149.283Z" fill="white" stroke="#000" stroke-linecap="round" stroke-linejoin="round"/>
<path d="M150.052 129.584C149.636 126.369 149.536 123.12 149.753 119.885C150.182 115.604 152.169 111.631 155.335 108.722C160.019 104.895 162.379 104.613 162.379 104.613C162.225 101.854 162.42 99.0868 162.96 96.3771C163.823 93.1499 165.232 90.1166 167.662 90.2048C170.092 90.2929 178.756 90.5928 181.151 91.3863C183.546 92.1799 182.806 93.9611 182.63 95.4954C182.331 97.8409 181.45 103.731 181.45 103.731C181.45 103.731 184.391 109.022 184.092 119.003C183.863 126.957 178.509 134.593 178.509 134.593L175.868 152.228C175.868 152.228 155.335 155.755 145.051 153.392C139.169 152.052 137.162 141.735 140.367 135.475C142.744 130.801 150.052 129.584 150.052 129.584Z" fill="white" stroke="#000" stroke-linecap="round" stroke-linejoin="round"/>
<path d="M50.5574 183.672L53.78 182.49L119.957 204.693C119.957 204.693 122.317 218.202 122.017 221.447C121.718 224.692 112.086 228.201 112.086 228.201L47.3701 203.371C47.3701 203.371 51.4907 198.962 52.0719 195.435C52.653 191.908 50.5574 183.672 50.5574 183.672Z" fill="white" stroke="#000" stroke-linecap="round" stroke-linejoin="round"/>
<path d="M154.155 72.8692L204.783 75.5145C206.003 71.464 205.848 67.1228 204.343 63.1698C201.701 57.4383 177.928 45.9753 170.884 45.9753H130.822C126.42 45.9753 124.219 51.2659 124.219 51.2659C124.219 51.2659 136.81 56.5565 141.388 59.2018C146.755 62.5723 151.154 67.2822 154.155 72.8692Z" fill="white" stroke="#000" stroke-linecap="round" stroke-linejoin="round"/>
<path d="M228.996 190.585C227.675 179.122 200.821 179.122 200.821 179.122C200.821 179.122 147.692 187.199 143.008 188.381C138.324 189.562 129.801 190.426 127.741 200.725C126.308 207.735 127.237 215.022 130.382 221.447C131.703 224.092 148.872 230.265 156.356 228.942C169.475 226.614 213.447 211.007 213.447 211.007C213.447 211.007 230.792 206.104 228.996 190.585ZM225.615 194.553C225.175 199.844 223.713 201.607 218.43 204.252C213.147 206.898 173.526 221.006 167.362 222.329C159.279 224.092 156.497 223.704 155.036 220.565C152.588 215.275 152.834 206.845 153.275 204.693C154.595 198.08 162.52 197.639 177.488 193.23C186.927 190.444 217.99 184.025 221.952 186.176C223.854 187.199 226.055 189.262 225.615 194.553Z" fill="white" stroke="#000" stroke-linecap="round" stroke-linejoin="round"/>
<path d="M154.349 202.189L217.303 186.582L216.282 204.217L158.469 223.016C158.469 223.016 148.432 218.643 154.349 202.189Z" fill="white" stroke="#000" stroke-linecap="round" stroke-linejoin="round"/>
<path d="M153.275 204.693L212.267 190.585L212.408 202.489L155.176 220.706C152.821 215.718 152.153 210.096 153.275 204.693Z" fill="white" stroke="#000" stroke-linecap="round" stroke-linejoin="round"/>
<path d="M218.571 189.263C211.897 189.668 211.827 203.953 217.691 201.607C223.555 199.262 223.273 188.963 218.571 189.263Z" fill="white" stroke="#000" stroke-linecap="round" stroke-linejoin="round"/>
<path d="M112.086 228.201C113.553 225.502 114.83 222.702 115.907 219.824C117.087 216.297 115.907 206.898 115.907 206.898L51.3322 184.254" stroke="#000" stroke-linecap="round" stroke-linejoin="round"/>
<path d="M162.96 160.164C162.96 160.164 165.161 137.679 172.645 126.657C180.129 115.635 190.695 111.667 195.538 111.667C200.381 111.667 202.141 116.958 202.141 116.958C196.524 118.33 191.642 121.8 188.494 126.657C183.651 134.593 187.173 154.433 183.651 157.96C180.129 161.487 162.96 160.164 162.96 160.164Z" fill="white" stroke="#000" stroke-linecap="round" stroke-linejoin="round"/>
<path d="M137.813 124.858L139.345 112.513C138.647 111.903 138.216 111.041 138.148 110.115C138.127 109.655 138.251 109.201 138.503 108.816C138.755 108.431 139.121 108.136 139.55 107.972C139.979 107.808 140.449 107.784 140.893 107.902C141.337 108.021 141.732 108.277 142.022 108.634C143.36 110.397 141.423 112.443 141.423 112.443L140.613 123.765L137.813 124.858Z" fill="white" stroke="#000" stroke-linecap="round" stroke-linejoin="round"/>
<path d="M144.681 125.916L147.851 113.113C147.851 113.113 144.611 112.055 144.681 111.579C144.752 111.103 144.681 109.551 145.297 109.621C146.424 109.727 153.609 110.785 154.226 111.808C154.419 112.108 154.014 113.219 153.504 113.66C152.993 114.101 149.982 113.66 149.982 113.66L147.516 125.052L144.681 125.916Z" fill="white" stroke="#000" stroke-linecap="round" stroke-linejoin="round"/>
<path d="M147.851 153.692L128.48 150.165L126.719 136.938C127.036 132.376 129.016 128.089 132.284 124.893C137.567 120.185 139.627 118.421 139.627 118.421L152.535 119.885L153.416 132.529L147.851 153.692Z" fill="white" stroke="#000" stroke-linecap="round" stroke-linejoin="round"/>
<path d="M49.7825 159.582L65.7193 157.554L70.8261 159.247L70.1922 160.94L56.6327 165.825L49.7825 159.582Z" fill="white" stroke="#000" stroke-linecap="round" stroke-linejoin="round"/>
<path d="M100.463 28.005L127.195 59.537C127.908 60.9253 128.14 62.5111 127.857 64.0462C127.573 65.5812 126.789 66.9786 125.627 68.0196C125.116 68.5961 124.482 69.0501 123.771 69.3483C123.061 69.6464 122.293 69.781 121.524 69.742C120.755 69.7031 120.004 69.4917 119.328 69.1233C118.651 68.755 118.066 68.2392 117.615 67.614L92.9615 35.9938C92.4114 34.4 92.4114 32.6674 92.9615 31.0735C94.2118 28.3224 97.7337 26.1356 100.463 28.005Z" fill="white" stroke="#000" stroke-linecap="round" stroke-linejoin="round"/>
<path d="M78.997 8.30615L98.0683 29.4686C98.3071 29.9245 98.3964 30.4441 98.3237 30.9537C98.251 31.4633 98.0199 31.9371 97.6633 32.3078C96.3778 33.5776 94.3703 32.4136 94.3703 32.4136L75.5279 11.6392L78.997 8.30615Z" fill="white" stroke="#000" stroke-linecap="round" stroke-linejoin="round"/>
<path d="M75.3519 33.6305L83.2762 23.0493L115.854 64.4923L123.338 64.0515C123.338 64.0515 125.98 64.0515 128.621 72.4282C131.263 80.805 131.844 170.445 131.844 170.445L127.741 175.154L113.072 172.509L111.011 166.336C111.011 166.336 104.549 163.973 104.549 159.564C104.549 155.156 110.871 153.251 110.871 153.251L107.049 83.0094L75.3519 33.6305Z" fill="white" stroke="#000" stroke-linecap="round" stroke-linejoin="round"/>
<path d="M19.7933 104.86L53.6391 117.328L65.4023 163.638L75.9681 162.633L78.8385 163.973V165.737L46.4191 175.648L12.8375 161.963C8.35303 154.486 4.64724 146.567 1.77856 138.331C-3.96219 122.089 19.7933 104.86 19.7933 104.86Z" fill="white" stroke="#000" stroke-linecap="round" stroke-linejoin="round"/>
<path d="M26.485 109.463C26.485 109.463 69.6287 35.835 70.9494 30.1035C72.2701 24.372 63.9055 25.2538 63.9055 25.2538C63.9055 25.2538 59.9786 15.7307 62.5848 11.798C64.9781 8.24343 67.7862 4.9873 70.9494 2.09862C73.6613 -0.0881644 77.9933 1.21686 79.0851 1.887C80.2665 2.68797 81.2287 3.77255 81.8839 5.04175C82.5391 6.31094 82.8665 7.7243 82.836 9.15275L89.6509 10.0345L96.0432 23.9312L90.3201 26.5765L39.34 116.816L26.485 109.463Z" fill="white" stroke="#000" stroke-linecap="round" stroke-linejoin="round"/>
<path d="M9.68531 104.313C13.3481 106.076 22.3467 110.591 22.3467 110.591L8.62872 120.061C6.75788 117.582 5.09679 114.951 3.66277 112.196C1.62005 108.157 6.0225 102.567 9.68531 104.313Z" fill="white" stroke="#000" stroke-linecap="round" stroke-linejoin="round"/>
<path d="M41.013 67.2788L63.9056 24.1428C63.9056 24.1428 68.9595 21.4975 72.0412 23.7019C75.1229 25.9063 73.1506 30.5444 73.1506 30.5444L50.9976 73.751C50.3283 74.446 49.4852 74.9484 48.5559 75.2058C47.6267 75.4633 46.6455 75.4663 45.7147 75.2147C41.8934 74.1742 40.2029 71.5995 41.013 67.2788Z" fill="white" stroke="#000" stroke-linecap="round" stroke-linejoin="round"/>
<path d="M21.2549 114.471L43.2141 69.395C43.6258 68.8841 44.1862 68.5144 44.8174 68.3374C45.4487 68.1604 46.1194 68.1849 46.7361 68.4074C48.9021 69.2716 48.497 72.2696 48.497 72.2696L26.8195 116.905L21.2549 114.471Z" fill="white" stroke="#000" stroke-linecap="round" stroke-linejoin="round"/>
<path d="M110.131 83.0095L115.537 157.73C115.495 158.4 115.242 159.038 114.815 159.555C114.388 160.071 113.808 160.439 113.16 160.605C110.888 161.152 109.427 158.506 109.427 158.506L104.848 82.5686L110.131 83.0095Z" fill="white" stroke="#000" stroke-linecap="round" stroke-linejoin="round"/>
<path d="M13.718 122.742L22.9631 124.946L30.4472 112.602L37.8609 111.349L41.3828 105.547C41.3828 105.547 27.9114 95.9362 25.0938 94.0845C24.4388 93.6404 23.6942 93.3462 22.9129 93.2227C22.1316 93.0992 21.3327 93.1495 20.573 93.37C19.8133 93.5905 19.1113 93.9758 18.517 94.4986C17.9227 95.0213 17.4506 95.6687 17.1342 96.3947C16.5943 98.4292 16.8725 100.595 17.9091 102.426L8.62878 114.947L13.718 122.742Z" fill="white" stroke="#000" stroke-linecap="round" stroke-linejoin="round"/>
<path d="M24.6711 106.024C29.954 108.563 43.0732 112.972 43.0732 112.972L37.5967 119.303C37.5967 119.303 32.5603 114.647 30.3239 117.01C28.0874 119.374 30.5528 124.153 30.5528 124.153L25.7453 127.451C25.7453 127.451 18.8599 117.275 17.4688 112.866C16.0776 108.457 21.0435 104.295 24.6711 106.024Z" fill="white" stroke="#000" stroke-linecap="round" stroke-linejoin="round"/>
<path d="M50.575 122.089C50.575 122.089 39.8507 132.036 35.7476 136.78C30.4647 142.864 34.7791 160.093 42.9148 169.722" stroke="#000" stroke-linecap="round" stroke-linejoin="round"/>
<path d="M72.7104 19.0815C72.7104 19.0815 70.069 4.74396 79.0851 2.7688" stroke="#000" stroke-linecap="round" stroke-linejoin="round"/>
<path d="M87.2384 41.1257L112.772 76.3964C112.772 76.3964 113.195 68.9543 117.615 67.5787" stroke="#000" stroke-linecap="round" stroke-linejoin="round"/>
<path d="M117.615 83.8738L123.338 161.028L119.816 167.642L110.131 166.319" stroke="#000" stroke-linecap="round" stroke-linejoin="round"/>
<path d="M116.735 80.8052C117.175 71.9876 119.552 67.5787 125.627 68.0196" stroke="#000" stroke-linecap="round" stroke-linejoin="round"/>
<path d="M127.934 50.825L173.138 52.2887C179.776 53.6444 186.131 56.1319 191.928 59.6426C199.852 64.9332 202.494 74.6327 202.494 74.6327" stroke="#000" stroke-linecap="round" stroke-linejoin="round"/>
<path d="M41.6469 66.3089C45.3978 62.9934 52.4416 66.9613 51.7725 71.8111" stroke="#000" stroke-linecap="round" stroke-linejoin="round"/>
<path d="M142.709 149.195C143.149 132.441 144.03 132.001 151.954 124.065" stroke="#000" stroke-linecap="round" stroke-linejoin="round"/>
<path d="M129.061 218.061L151.073 223.933" stroke="#000" stroke-linecap="round" stroke-linejoin="round"/>
<path d="M127.3 211.289L149.013 216.579" stroke="#000" stroke-linecap="round" stroke-linejoin="round"/>
<path d="M127.001 205.117L148.731 210.407" stroke="#000" stroke-linecap="round" stroke-linejoin="round"/>
<path d="M128.762 198.362L150.492 203.653" stroke="#000" stroke-linecap="round" stroke-linejoin="round"/>
<path d="M81.8146 171.028L100.586 176.9" stroke="#000" stroke-linecap="round" stroke-linejoin="round"/>
<path d="M79.1731 176.318L98.8255 182.49" stroke="#000" stroke-linecap="round" stroke-linejoin="round"/>
<path d="M78.2927 182.79L96.7828 188.363" stroke="#000" stroke-linecap="round" stroke-linejoin="round"/>
<path d="M132.883 192.49L153.715 197.481" stroke="#000" stroke-linecap="round" stroke-linejoin="round"/>
<path d="M140.508 188.962L162.22 194.253" stroke="#000" stroke-linecap="round" stroke-linejoin="round"/>
<path d="M166.042 105.195L176.907 106.658C176.907 106.658 175.146 97.8408 178.95 94.3137" stroke="#000" stroke-linecap="round" stroke-linejoin="round"/>
</svg>
