<svg width="381" height="145" viewBox="0 0 381 145" fill="none" xmlns="http://www.w3.org/2000/svg">
<path d="M199.88 70.572L190.628 61.32L199.88 52.068L197.288 49.476L188.036 58.728L178.784 49.476L176.192 52.068L185.444 61.32L176.192 70.572L178.784 73.164L188.036 63.912L197.288 73.164L199.88 70.572Z" fill="#000"/>
<path d="M19.072 123.008C19.12 123.008 19.208 122.896 19.336 122.672L19.6 122.216C19.664 122.12 19.736 122 19.816 121.856C19.912 121.712 19.992 121.608 20.056 121.544C20.12 121.464 20.184 121.424 20.248 121.424C20.36 121.424 20.608 121.624 20.992 122.024C21.376 122.408 21.664 122.744 21.856 123.032C21.92 123.16 21.952 123.256 21.952 123.32C21.952 123.416 21.904 123.504 21.808 123.584C21.696 123.664 21.56 123.704 21.4 123.704H19.504C19.344 123.704 19.216 123.752 19.12 123.848C19.04 123.928 19 124.048 19 124.208V128.912C19 129.216 19.128 129.368 19.384 129.368L19.576 129.32L21.208 128.696C21.352 128.632 21.472 128.6 21.568 128.6C21.664 128.6 21.72 128.616 21.736 128.648V128.672C21.736 128.784 21.64 128.912 21.448 129.056C19.576 130.512 17.752 131.84 15.976 133.04C15.768 133.184 15.64 133.336 15.592 133.496C15.544 133.624 15.464 133.688 15.352 133.688C15.192 133.688 15.056 133.584 14.944 133.376L14.224 131.816C14.176 131.72 14.152 131.64 14.152 131.576C14.152 131.416 14.272 131.28 14.512 131.168C15.328 130.896 16 130.656 16.528 130.448C16.8 130.352 16.936 130.16 16.936 129.872V124.208C16.936 124.048 16.888 123.928 16.792 123.848C16.712 123.752 16.592 123.704 16.432 123.704H16.168C15.848 123.736 15.568 123.792 15.328 123.872C15.232 123.904 15.16 123.92 15.112 123.92C14.92 123.92 14.768 123.816 14.656 123.608L14.584 123.488C14.536 123.392 14.512 123.304 14.512 123.224C14.512 123 14.672 122.904 14.992 122.936L16.072 123.008H16.432C16.592 123.008 16.712 122.968 16.792 122.888C16.888 122.792 16.936 122.664 16.936 122.504V117.608C16.936 117.448 16.888 117.328 16.792 117.248C16.712 117.152 16.592 117.104 16.432 117.104H16.096C15.744 117.136 15.432 117.192 15.16 117.272C15.064 117.304 14.992 117.32 14.944 117.32C14.752 117.32 14.6 117.216 14.488 117.008L14.416 116.864C14.368 116.768 14.344 116.68 14.344 116.6C14.344 116.488 14.384 116.408 14.464 116.36C14.544 116.296 14.656 116.272 14.8 116.288C15.36 116.336 16.192 116.376 17.296 116.408H18.448C18.704 116.408 18.904 116.304 19.048 116.096L19.696 115.16C19.792 115.016 19.92 114.944 20.08 114.944C20.192 114.944 20.304 114.992 20.416 115.088L21.328 115.928C21.44 116.04 21.552 116.096 21.664 116.096C21.744 116.096 21.808 116.064 21.856 116C21.904 115.936 21.928 115.848 21.928 115.736C21.928 115.464 21.912 115.104 21.88 114.656V114.608C21.88 114.32 21.984 114.176 22.192 114.176C22.256 114.176 22.336 114.2 22.432 114.248L23.824 114.872C24.048 114.968 24.256 115.016 24.448 115.016H31.576C31.832 115.016 32.04 114.92 32.2 114.728L32.416 114.44C32.464 114.392 32.528 114.312 32.608 114.2C32.704 114.088 32.784 114.008 32.848 113.96C32.912 113.896 32.976 113.864 33.04 113.864C33.152 113.864 33.44 114.032 33.904 114.368C34.368 114.688 34.728 114.984 34.984 115.256C35.048 115.32 35.08 115.4 35.08 115.496C35.08 115.608 35.016 115.712 34.888 115.808L34.648 115.952C34.376 116.08 34.24 116.264 34.24 116.504V119.576L34.216 119.624C34.04 119.768 33.952 119.904 33.952 120.032C33.952 120.128 34.008 120.224 34.12 120.32C34.68 120.768 35.096 121.112 35.368 121.352C35.528 121.48 35.608 121.608 35.608 121.736C35.608 121.832 35.56 121.904 35.464 121.952C35.368 122 35.24 122.024 35.08 122.024H25.24C24.264 122.04 23.208 122.128 22.072 122.288H21.928C21.704 122.288 21.544 122.184 21.448 121.976L21.352 121.784C21.304 121.688 21.28 121.6 21.28 121.52C21.28 121.408 21.32 121.328 21.4 121.28C21.48 121.216 21.592 121.192 21.736 121.208C22.296 121.256 23.128 121.296 24.232 121.328H31.936C32.192 121.328 32.4 121.232 32.56 121.04L32.776 120.752C33.08 120.336 33.144 120.128 32.968 120.128C32.888 120.128 32.808 120.136 32.728 120.152C32.664 120.168 32.6 120.176 32.536 120.176C32.312 120.176 32.2 120.096 32.2 119.936C32.2 119.856 32.152 119.8 32.056 119.768C31.976 119.72 31.856 119.696 31.696 119.696H24.472C24.136 119.696 23.968 119.84 23.968 120.128C23.968 120.224 23.776 120.36 23.392 120.536C23.008 120.696 22.632 120.776 22.264 120.776C22.12 120.776 22.008 120.728 21.928 120.632C21.848 120.536 21.808 120.424 21.808 120.296C21.872 119.752 21.92 119.072 21.952 118.256V117.56C21.952 117.192 21.88 117.032 21.736 117.08C21.704 117.096 21.632 117.104 21.52 117.104H19.504C19.344 117.104 19.216 117.152 19.12 117.248C19.04 117.328 19 117.448 19 117.608V122.504C19 122.84 19.024 123.008 19.072 123.008ZM25.144 119.024C25.304 119.024 25.424 118.984 25.504 118.904C25.6 118.808 25.648 118.68 25.648 118.52V116.192C25.648 116.032 25.6 115.912 25.504 115.832C25.424 115.736 25.304 115.688 25.144 115.688H24.472C24.312 115.688 24.184 115.736 24.088 115.832C24.008 115.912 23.968 116.032 23.968 116.192V118.52C23.968 118.68 24.008 118.808 24.088 118.904C24.184 118.984 24.312 119.024 24.472 119.024H25.144ZM28.408 119.024C28.568 119.024 28.688 118.984 28.768 118.904C28.864 118.808 28.912 118.68 28.912 118.52V116.192C28.912 116.032 28.864 115.912 28.768 115.832C28.688 115.736 28.568 115.688 28.408 115.688H27.712C27.552 115.688 27.424 115.736 27.328 115.832C27.248 115.912 27.208 116.032 27.208 116.192V118.52C27.208 118.68 27.248 118.808 27.328 118.904C27.424 118.984 27.552 119.024 27.712 119.024H28.408ZM31.696 119.024C31.856 119.024 31.976 118.984 32.056 118.904C32.152 118.808 32.2 118.68 32.2 118.52V116.192C32.2 116.032 32.152 115.912 32.056 115.832C31.976 115.736 31.856 115.688 31.696 115.688H30.976C30.816 115.688 30.688 115.736 30.592 115.832C30.512 115.912 30.472 116.032 30.472 116.192V118.52C30.472 118.68 30.512 118.808 30.592 118.904C30.688 118.984 30.816 119.024 30.976 119.024H31.696ZM30.856 123.704C31.112 123.704 31.312 123.6 31.456 123.392L31.696 123.032C31.76 122.952 31.824 122.856 31.888 122.744C31.968 122.632 32.048 122.536 32.128 122.456C32.208 122.376 32.28 122.336 32.344 122.336C32.472 122.336 32.776 122.536 33.256 122.936C33.752 123.32 34.128 123.664 34.384 123.968C34.448 124.048 34.48 124.136 34.48 124.232C34.48 124.344 34.416 124.448 34.288 124.544C34.24 124.576 34.192 124.6 34.144 124.616C34.096 124.632 34.056 124.648 34.024 124.664C33.752 124.792 33.616 124.984 33.616 125.24V127.904C33.632 128.112 33.728 128.288 33.904 128.432C34.752 129.04 35.176 129.424 35.176 129.584C35.176 129.648 35.112 129.68 34.984 129.68H34.96C34.752 129.68 34.544 129.736 34.336 129.848C33.6 130.216 32.888 130.544 32.2 130.832C31.992 130.912 31.888 131.032 31.888 131.192C31.888 131.32 31.96 131.432 32.104 131.528C33.144 132.328 34.28 132.936 35.512 133.352C35.832 133.448 35.976 133.536 35.944 133.616C35.928 133.68 35.864 133.736 35.752 133.784C35.656 133.832 35.584 133.864 35.536 133.88C35.072 134.104 34.728 134.512 34.504 135.104C34.424 135.344 34.304 135.464 34.144 135.464C34.048 135.464 33.96 135.432 33.88 135.368C31.64 134.008 29.992 131.896 28.936 129.032C28.776 128.632 28.616 128.512 28.456 128.672C28.456 128.672 28.448 128.68 28.432 128.696C28.272 128.936 28.192 129.144 28.192 129.32V131.12C28.24 132.864 28.288 134.144 28.336 134.96V135.08C28.336 135.304 28.256 135.464 28.096 135.56C27.696 135.864 27.144 136.016 26.44 136.016C26.264 136.016 26.128 135.968 26.032 135.872C25.936 135.776 25.888 135.664 25.888 135.536C25.952 134.816 26.008 133.84 26.056 132.608V131.648C26.056 131.52 26.024 131.416 25.96 131.336C25.912 131.256 25.848 131.216 25.768 131.216C25.688 131.216 25.584 131.264 25.456 131.36C23.776 132.528 21.76 133.512 19.408 134.312C19.264 134.36 19.144 134.384 19.048 134.384C18.952 134.384 18.896 134.352 18.88 134.288V134.24C18.88 134.128 19 134.008 19.24 133.88C20.552 133.208 21.776 132.408 22.912 131.48C24.064 130.552 25.056 129.568 25.888 128.528C25.984 128.4 26.032 128.296 26.032 128.216C26.032 128.12 25.992 128.048 25.912 128C25.832 127.936 25.728 127.904 25.6 127.904H25.192C24.856 127.904 24.688 128.024 24.688 128.264C24.688 128.36 24.488 128.488 24.088 128.648C23.704 128.792 23.32 128.864 22.936 128.864C22.808 128.864 22.704 128.816 22.624 128.72C22.56 128.624 22.528 128.512 22.528 128.384C22.576 128.032 22.608 127.688 22.624 127.352C22.624 127.144 22.632 126.976 22.648 126.848V125.816C22.648 124.856 22.616 124.032 22.552 123.344V123.248C22.552 123.008 22.656 122.888 22.864 122.888C22.96 122.888 23.04 122.904 23.104 122.936L24.52 123.56C24.728 123.656 24.936 123.704 25.144 123.704H30.856ZM25.192 124.4C25.032 124.4 24.904 124.448 24.808 124.544C24.728 124.624 24.688 124.744 24.688 124.904V126.704C24.688 126.864 24.728 126.992 24.808 127.088C24.904 127.168 25.032 127.208 25.192 127.208H30.976C31.136 127.208 31.256 127.168 31.336 127.088C31.432 126.992 31.48 126.864 31.48 126.704V124.904C31.48 124.744 31.432 124.624 31.336 124.544C31.256 124.448 31.136 124.4 30.976 124.4H25.192ZM32.176 129.152C32.32 128.992 32.408 128.848 32.44 128.72C32.472 128.592 32.44 128.528 32.344 128.528C32.248 128.528 32.16 128.536 32.08 128.552C32 128.568 31.912 128.576 31.816 128.576C31.592 128.576 31.48 128.464 31.48 128.24C31.48 128.016 31.312 127.904 30.976 127.904H29.728H29.056V127.928C29.456 128.728 29.984 129.48 30.64 130.184C30.768 130.312 30.888 130.376 31 130.376C31.128 130.376 31.24 130.312 31.336 130.184L32.176 129.152ZM57.016 120.512C57.272 120.512 57.472 120.408 57.616 120.2L58 119.624C58.064 119.528 58.152 119.4 58.264 119.24C58.392 119.064 58.488 118.936 58.552 118.856C58.632 118.776 58.704 118.736 58.768 118.736C58.896 118.736 59.224 118.96 59.752 119.408C60.28 119.856 60.656 120.232 60.88 120.536C60.96 120.648 61 120.744 61 120.824C61 120.92 60.952 121.008 60.856 121.088C60.728 121.168 60.576 121.208 60.4 121.208H47.416C47.304 121.208 47.2 121.232 47.104 121.28C47.008 121.312 46.936 121.336 46.888 121.352C46.792 121.384 46.704 121.4 46.624 121.4H44.632C44.472 121.4 44.344 121.448 44.248 121.544C44.168 121.624 44.128 121.744 44.128 121.904V127.4C44.128 127.544 44.16 127.656 44.224 127.736C44.288 127.816 44.376 127.856 44.488 127.856C44.536 127.856 44.608 127.84 44.704 127.808L46.624 127.16C46.96 127.064 47.136 127.056 47.152 127.136V127.16C47.152 127.24 47.056 127.368 46.864 127.544C45.44 128.584 43.576 129.872 41.272 131.408C41.08 131.536 40.96 131.648 40.912 131.744C40.912 131.76 40.896 131.8 40.864 131.864C40.8 131.976 40.712 132.032 40.6 132.032C40.44 132.032 40.304 131.928 40.192 131.72L39.448 130.016C39.416 129.952 39.4 129.864 39.4 129.752C39.4 129.56 39.52 129.432 39.76 129.368C40.016 129.304 40.624 129.128 41.584 128.84C41.856 128.744 41.992 128.552 41.992 128.264V121.904C41.992 121.744 41.944 121.624 41.848 121.544C41.768 121.448 41.648 121.4 41.488 121.4H41.176C40.856 121.432 40.576 121.488 40.336 121.568C40.208 121.6 40.128 121.616 40.096 121.616C39.904 121.616 39.76 121.512 39.664 121.304L39.592 121.184C39.544 121.088 39.52 121 39.52 120.92C39.52 120.824 39.56 120.752 39.64 120.704C39.72 120.64 39.84 120.616 40 120.632L41.152 120.704H41.488C41.648 120.704 41.768 120.664 41.848 120.584C41.944 120.488 41.992 120.36 41.992 120.2V119.072C41.992 117.456 41.92 116.016 41.776 114.752V114.656C41.776 114.512 41.824 114.408 41.92 114.344C42.016 114.264 42.152 114.248 42.328 114.296C43.928 114.68 44.728 114.984 44.728 115.208C44.728 115.288 44.664 115.368 44.536 115.448L44.464 115.496C44.24 115.64 44.128 115.84 44.128 116.096V120.2C44.128 120.536 44.152 120.704 44.2 120.704H44.272L45.04 119.432C45.136 119.256 45.256 119.168 45.4 119.168C45.512 119.168 45.624 119.224 45.736 119.336C45.816 119.432 45.928 119.552 46.072 119.696C46.216 119.84 46.376 120.016 46.552 120.224C46.696 120.416 46.904 120.512 47.176 120.512H49.48C49.736 120.512 49.96 120.512 50.152 120.512C50.36 120.496 50.488 120.48 50.536 120.464L50.416 120.368C50.224 120.24 50.12 120.048 50.104 119.792C50.04 119.104 49.816 118.344 49.432 117.512C49.32 117.272 49.128 117.152 48.856 117.152H48.472C48.136 117.184 47.84 117.24 47.584 117.32C47.488 117.352 47.416 117.368 47.368 117.368C47.176 117.368 47.024 117.264 46.912 117.056L46.84 116.912C46.792 116.816 46.768 116.72 46.768 116.624C46.768 116.528 46.808 116.456 46.888 116.408C46.968 116.344 47.08 116.32 47.224 116.336C47.768 116.384 48.592 116.424 49.696 116.456H51.568C51.904 116.456 52.072 116.288 52.072 115.952C52.04 115.152 52.008 114.6 51.976 114.296V114.248C51.976 114.12 52.008 114.016 52.072 113.936C52.136 113.856 52.224 113.816 52.336 113.816C52.384 113.816 52.456 113.832 52.552 113.864C54.072 114.232 54.832 114.528 54.832 114.752C54.832 114.816 54.768 114.888 54.64 114.968L54.544 115.016C54.32 115.16 54.208 115.368 54.208 115.64V115.952C54.208 116.112 54.248 116.24 54.328 116.336C54.424 116.416 54.552 116.456 54.712 116.456H56.728C56.984 116.456 57.184 116.344 57.328 116.12L57.664 115.616C57.744 115.504 57.832 115.376 57.928 115.232C58.04 115.072 58.128 114.96 58.192 114.896C58.272 114.816 58.344 114.776 58.408 114.776C58.536 114.776 58.848 114.992 59.344 115.424C59.84 115.84 60.192 116.192 60.4 116.48C60.48 116.592 60.52 116.688 60.52 116.768C60.52 116.864 60.472 116.952 60.376 117.032C60.264 117.112 60.12 117.152 59.944 117.152H58.024C57.768 117.152 57.552 117.184 57.376 117.248C57.216 117.296 57.208 117.344 57.352 117.392C57.752 117.52 57.952 117.64 57.952 117.752C57.952 117.832 57.872 117.896 57.712 117.944L57.592 117.992C57.384 118.088 57.208 118.216 57.064 118.376C56.632 118.888 56.144 119.392 55.6 119.888C55.472 120.016 55.408 120.136 55.408 120.248C55.408 120.424 55.552 120.512 55.84 120.512H57.016ZM55.12 117.704C55.136 117.672 55.144 117.616 55.144 117.536C55.144 117.28 54.992 117.152 54.688 117.152H50.968C50.712 117.152 50.584 117.2 50.584 117.296C50.584 117.408 50.688 117.52 50.896 117.632C51.328 117.904 51.64 118.2 51.832 118.52C52.04 118.824 52.144 119.128 52.144 119.432C52.144 119.656 52.096 119.856 52 120.032C51.904 120.176 51.856 120.288 51.856 120.368C51.856 120.464 51.968 120.512 52.192 120.512H53.848C54.152 120.512 54.336 120.384 54.4 120.128C54.672 119.344 54.912 118.536 55.12 117.704ZM56.224 122.792C56.48 122.792 56.68 122.688 56.824 122.48L57.088 122.12C57.152 122.04 57.216 121.944 57.28 121.832C57.36 121.72 57.44 121.624 57.52 121.544C57.6 121.464 57.672 121.424 57.736 121.424C57.848 121.424 58.144 121.624 58.624 122.024C59.12 122.408 59.496 122.752 59.752 123.056C59.816 123.136 59.848 123.224 59.848 123.32C59.848 123.432 59.784 123.536 59.656 123.632L59.416 123.752C59.144 123.88 59.008 124.072 59.008 124.328V125.72C59.056 127.128 59.096 128.184 59.128 128.888V129.008C59.128 129.232 59.048 129.392 58.888 129.488C58.664 129.632 58.392 129.76 58.072 129.872C57.752 129.968 57.456 130.016 57.184 130.016C57.072 130.016 56.984 129.976 56.92 129.896C56.856 129.8 56.824 129.672 56.824 129.512V129.464C56.824 129.128 56.688 128.96 56.416 128.96C56.288 128.96 56.184 129.008 56.104 129.104C56.024 129.184 55.984 129.304 55.984 129.464V133.256C55.984 133.416 56.008 133.52 56.056 133.568C56.12 133.6 56.28 133.616 56.536 133.616H58.984C59.096 133.6 59.176 133.576 59.224 133.544C59.272 133.512 59.328 133.448 59.392 133.352C59.504 133.16 59.72 132.408 60.04 131.096C60.136 130.792 60.224 130.64 60.304 130.64C60.336 130.64 60.368 130.688 60.4 130.784C60.432 130.88 60.448 131 60.448 131.144L60.496 133.016C60.496 133.24 60.616 133.44 60.856 133.616C61.064 133.776 61.168 134.016 61.168 134.336C61.168 134.784 60.912 135.104 60.4 135.296C59.888 135.488 58.96 135.584 57.616 135.584H55.936C55.328 135.584 54.88 135.528 54.592 135.416C54.304 135.304 54.112 135.12 54.016 134.864C53.92 134.608 53.872 134.224 53.872 133.712V129.464C53.872 129.304 53.824 129.184 53.728 129.104C53.648 129.008 53.528 128.96 53.368 128.96H53.128C52.824 128.96 52.648 129.112 52.6 129.416C52.216 131.272 51.376 132.72 50.08 133.76C48.8 134.784 46.952 135.528 44.536 135.992L44.248 136.04C44.12 136.04 44.04 136 44.008 135.92V135.896C44.008 135.832 44.048 135.768 44.128 135.704C44.208 135.656 44.312 135.608 44.44 135.56C46.248 134.936 47.6 134.152 48.496 133.208C49.408 132.248 50 131.016 50.272 129.512L50.296 129.296C50.296 129.072 50.24 128.96 50.128 128.96C50.064 128.96 50.008 129.008 49.96 129.104C49.928 129.184 49.912 129.304 49.912 129.464V129.584C49.912 129.648 49.816 129.736 49.624 129.848C49.432 129.96 49.192 130.064 48.904 130.16C48.632 130.24 48.36 130.28 48.088 130.28C47.928 130.28 47.808 130.232 47.728 130.136C47.648 130.04 47.608 129.928 47.608 129.8C47.672 129.176 47.72 128.4 47.752 127.472V126.056C47.752 124.648 47.696 123.432 47.584 122.408V122.312C47.584 122.056 47.688 121.928 47.896 121.928C47.992 121.928 48.072 121.944 48.136 121.976L49.744 122.672C49.92 122.752 50.12 122.792 50.344 122.792H56.224ZM56.32 125.528C56.48 125.528 56.6 125.488 56.68 125.408C56.776 125.312 56.824 125.184 56.824 125.024V123.992C56.824 123.832 56.776 123.712 56.68 123.632C56.6 123.536 56.48 123.488 56.32 123.488H50.416C50.256 123.488 50.128 123.536 50.032 123.632C49.952 123.712 49.912 123.832 49.912 123.992V125.024C49.912 125.184 49.952 125.312 50.032 125.408C50.128 125.488 50.256 125.528 50.416 125.528H56.32ZM56.824 126.728C56.824 126.568 56.776 126.448 56.68 126.368C56.6 126.272 56.48 126.224 56.32 126.224H50.416C50.256 126.224 50.128 126.272 50.032 126.368C49.952 126.448 49.912 126.568 49.912 126.728V127.784C49.912 127.944 49.952 128.072 50.032 128.168C50.128 128.248 50.256 128.288 50.416 128.288H56.32C56.48 128.288 56.6 128.248 56.68 128.168C56.776 128.072 56.824 127.944 56.824 127.784V126.728ZM75.808 117.2C77.216 117.2 78.608 117.48 79.984 118.04C81.36 118.6 82.504 119.504 83.416 120.752C84.328 121.984 84.784 123.552 84.784 125.456C84.784 127.616 84.152 129.36 82.888 130.688C81.64 132 80.12 132.928 78.328 133.472C76.552 134.016 74.792 134.288 73.048 134.288C72.648 134.288 72.448 134.248 72.448 134.168C72.448 134.104 72.592 134.048 72.88 134C73.168 133.936 73.336 133.896 73.384 133.88C76.024 133.448 78.192 132.512 79.888 131.072C81.584 129.632 82.432 127.712 82.432 125.312C82.432 123.44 82.04 121.96 81.256 120.872C80.488 119.768 79.576 119.008 78.52 118.592C77.464 118.176 76.464 117.968 75.52 117.968C75.248 118.144 75.152 118.336 75.232 118.544C75.376 118.96 75.496 119.416 75.592 119.912C75.688 120.408 75.736 120.872 75.736 121.304C75.736 121.896 75.664 122.584 75.52 123.368C75.392 124.152 75.168 124.936 74.848 125.72C74.352 127.016 73.768 128.168 73.096 129.176C72.424 130.184 71.76 130.96 71.104 131.504C70.464 132.048 69.928 132.32 69.496 132.32C68.904 132.32 68.336 132.016 67.792 131.408C67.264 130.784 66.832 130 66.496 129.056C66.176 128.096 66.016 127.136 66.016 126.176C66.016 124.384 66.488 122.808 67.432 121.448C68.392 120.088 69.624 119.04 71.128 118.304C72.648 117.568 74.208 117.2 75.808 117.2ZM74.848 119.792C74.848 119.344 74.808 118.904 74.728 118.472C74.648 118.168 74.448 118.04 74.128 118.088C72.944 118.296 71.864 118.76 70.888 119.48C69.928 120.184 69.168 121.064 68.608 122.12C68.048 123.176 67.768 124.312 67.768 125.528C67.768 126.408 67.88 127.16 68.104 127.784C68.328 128.392 68.592 128.848 68.896 129.152C69.2 129.456 69.448 129.608 69.64 129.608C70.008 129.608 70.456 129.328 70.984 128.768C71.512 128.208 72.024 127.536 72.52 126.752C73.352 125.488 73.944 124.312 74.296 123.224C74.664 122.136 74.848 120.992 74.848 119.792ZM92.584 124.136C92.584 124.008 92.56 123.904 92.512 123.824C92.464 123.744 92.4 123.704 92.32 123.704C92.208 123.704 92.088 123.776 91.96 123.92C91.352 124.672 90.76 125.328 90.184 125.888C90.04 126.032 89.912 126.104 89.8 126.104C89.704 126.104 89.656 126.056 89.656 125.96C89.656 125.848 89.704 125.712 89.8 125.552C90.968 123.68 92.008 121.4 92.92 118.712C93.144 118.024 93.36 117.248 93.568 116.384C93.776 115.52 93.912 114.76 93.976 114.104C94.024 113.816 94.16 113.672 94.384 113.672L94.6 113.72C96.344 114.296 97.216 114.688 97.216 114.896C97.216 114.944 97.144 115 97 115.064L96.904 115.112C96.68 115.224 96.528 115.392 96.448 115.616C95.952 117.008 95.368 118.36 94.696 119.672C94.632 119.784 94.6 119.888 94.6 119.984C94.6 120.144 94.68 120.248 94.84 120.296C95.016 120.376 95.136 120.472 95.2 120.584C95.28 120.696 95.264 120.784 95.152 120.848H95.128C94.856 121.024 94.72 121.216 94.72 121.424V129.56C94.752 131.304 94.808 133.064 94.888 134.84V134.96C94.888 135.184 94.808 135.344 94.648 135.44C94.44 135.6 94.176 135.736 93.856 135.848C93.552 135.96 93.256 136.016 92.968 136.016C92.776 136.016 92.616 135.968 92.488 135.872C92.376 135.776 92.32 135.664 92.32 135.536C92.384 134.592 92.44 133.68 92.488 132.8C92.536 131.904 92.568 130.736 92.584 129.296V124.136ZM107.176 125.552C107.432 125.552 107.632 125.448 107.776 125.24L108.16 124.664C108.224 124.568 108.312 124.44 108.424 124.28C108.552 124.104 108.648 123.976 108.712 123.896C108.792 123.816 108.864 123.776 108.928 123.776C109.04 123.776 109.368 124.008 109.912 124.472C110.472 124.92 110.872 125.296 111.112 125.6C111.192 125.712 111.232 125.808 111.232 125.888C111.232 125.968 111.192 126.048 111.112 126.128C110.984 126.208 110.832 126.248 110.656 126.248H105.544C105.24 126.248 105.088 126.352 105.088 126.56C105.088 126.672 105.12 126.768 105.184 126.848C105.888 127.936 106.776 128.936 107.848 129.848C108.936 130.744 110.056 131.456 111.208 131.984C111.48 132.128 111.608 132.232 111.592 132.296C111.576 132.36 111.512 132.416 111.4 132.464C111.304 132.512 111.232 132.544 111.184 132.56C110.688 132.768 110.288 133.2 109.984 133.856C109.888 134.08 109.768 134.192 109.624 134.192C109.56 134.192 109.464 134.144 109.336 134.048C107.64 132.656 106.232 130.712 105.112 128.216C105.016 128.008 104.904 127.904 104.776 127.904C104.712 127.904 104.656 127.944 104.608 128.024C104.576 128.088 104.56 128.184 104.56 128.312V129.704C104.592 131.448 104.648 133.176 104.728 134.888V135.008C104.728 135.216 104.656 135.384 104.512 135.512C104.048 135.88 103.464 136.064 102.76 136.064C102.584 136.064 102.448 136.016 102.352 135.92C102.256 135.824 102.208 135.712 102.208 135.584C102.304 134.192 102.368 132.784 102.4 131.36V130.016C102.4 129.888 102.376 129.784 102.328 129.704C102.28 129.624 102.216 129.584 102.136 129.584C102.04 129.584 101.928 129.656 101.8 129.8C100.344 131.608 98.416 133.16 96.016 134.456C95.744 134.6 95.568 134.624 95.488 134.528C95.472 134.512 95.464 134.488 95.464 134.456C95.464 134.36 95.56 134.224 95.752 134.048C96.872 133.12 97.88 132.032 98.776 130.784C99.688 129.52 100.44 128.2 101.032 126.824L101.08 126.608C101.08 126.496 101.04 126.408 100.96 126.344C100.88 126.28 100.776 126.248 100.648 126.248H99.424C98.496 126.264 97.488 126.352 96.4 126.512H96.256C96.032 126.512 95.872 126.408 95.776 126.2L95.68 126.008C95.632 125.912 95.608 125.824 95.608 125.744C95.608 125.632 95.648 125.552 95.728 125.504C95.808 125.44 95.92 125.416 96.064 125.432C96.64 125.48 97.472 125.52 98.56 125.552H101.896C102.056 125.552 102.176 125.512 102.256 125.432C102.352 125.336 102.4 125.208 102.4 125.048V122.696C102.4 122.536 102.352 122.416 102.256 122.336C102.176 122.24 102.056 122.192 101.896 122.192H100.576C100.416 122.192 100.288 122.24 100.192 122.336C100.112 122.416 100.072 122.536 100.072 122.696V123.032C100.072 123.112 99.976 123.208 99.784 123.32C99.592 123.432 99.352 123.536 99.064 123.632C98.776 123.712 98.488 123.752 98.2 123.752C98.072 123.752 97.968 123.704 97.888 123.608C97.808 123.512 97.768 123.4 97.768 123.272C97.832 122.584 97.88 121.704 97.912 120.632V119.048C97.912 117.512 97.84 116.136 97.696 114.92V114.824C97.696 114.568 97.8 114.44 98.008 114.44C98.104 114.44 98.184 114.456 98.248 114.488L99.904 115.208C100.08 115.288 100.28 115.328 100.504 115.328H106.336C106.592 115.328 106.8 115.224 106.96 115.016L107.2 114.704C107.248 114.656 107.32 114.568 107.416 114.44C107.512 114.312 107.592 114.224 107.656 114.176C107.736 114.112 107.808 114.08 107.872 114.08C108 114.08 108.32 114.272 108.832 114.656C109.344 115.024 109.72 115.344 109.96 115.616C110.04 115.696 110.08 115.784 110.08 115.88C110.08 115.992 110.016 116.096 109.888 116.192L109.576 116.336C109.288 116.448 109.144 116.64 109.144 116.912V118.544C109.192 120.16 109.232 121.376 109.264 122.192V122.312C109.264 122.536 109.184 122.696 109.024 122.792C108.816 122.92 108.544 123.032 108.208 123.128C107.888 123.224 107.592 123.272 107.32 123.272C107.208 123.272 107.12 123.232 107.056 123.152C106.992 123.056 106.96 122.928 106.96 122.768V122.696C106.96 122.536 106.912 122.416 106.816 122.336C106.736 122.24 106.616 122.192 106.456 122.192H105.064C104.904 122.192 104.776 122.24 104.68 122.336C104.6 122.416 104.56 122.536 104.56 122.696V125.048C104.56 125.208 104.6 125.336 104.68 125.432C104.776 125.512 104.904 125.552 105.064 125.552H107.176ZM106.96 116.528C106.96 116.368 106.912 116.248 106.816 116.168C106.736 116.072 106.616 116.024 106.456 116.024H100.576C100.416 116.024 100.288 116.072 100.192 116.168C100.112 116.248 100.072 116.368 100.072 116.528V120.992C100.072 121.152 100.112 121.28 100.192 121.376C100.288 121.456 100.416 121.496 100.576 121.496H106.456C106.616 121.496 106.736 121.456 106.816 121.376C106.912 121.28 106.96 121.152 106.96 120.992V116.528ZM126.856 116.048C126.76 115.856 126.648 115.76 126.52 115.76C126.408 115.76 126.296 115.84 126.184 116C125.048 117.696 123.504 119.368 121.552 121.016C119.6 122.648 117.592 123.976 115.528 125C115.24 125.144 115.072 125.16 115.024 125.048V125C115.024 124.904 115.128 124.776 115.336 124.616C116.536 123.784 117.744 122.76 118.96 121.544C120.192 120.312 121.28 119.04 122.224 117.728C123.168 116.416 123.84 115.208 124.24 114.104C124.368 113.784 124.584 113.672 124.888 113.768L127.384 114.464C127.496 114.496 127.584 114.552 127.648 114.632C127.728 114.696 127.768 114.76 127.768 114.824C127.768 114.936 127.712 115 127.6 115.016C127.392 115.16 127.288 115.312 127.288 115.472C127.288 115.52 127.312 115.584 127.36 115.664C129.152 117.968 132.192 119.952 136.48 121.616C136.752 121.744 136.888 121.856 136.888 121.952C136.872 122.048 136.736 122.152 136.48 122.264C135.904 122.536 135.456 123.032 135.136 123.752C135.04 123.976 134.912 124.088 134.752 124.088C134.672 124.088 134.584 124.064 134.488 124.016C132.792 123.008 131.28 121.832 129.952 120.488C128.624 119.144 127.592 117.664 126.856 116.048ZM129.856 128.624C130.112 128.624 130.312 128.52 130.456 128.312L130.84 127.784C130.92 127.672 131.008 127.552 131.104 127.424C131.2 127.296 131.296 127.184 131.392 127.088C131.488 126.992 131.568 126.944 131.632 126.944C131.76 126.944 132.096 127.16 132.64 127.592C133.184 128.008 133.576 128.36 133.816 128.648C133.896 128.728 133.936 128.816 133.936 128.912C133.936 129.008 133.888 129.096 133.792 129.176C133.664 129.256 133.512 129.296 133.336 129.296H127.384C127.224 129.296 127.096 129.344 127 129.44C126.92 129.52 126.88 129.64 126.88 129.8V133.976C126.88 134.136 126.92 134.256 127 134.336C127.096 134.432 127.224 134.48 127.384 134.48H131.944C132.2 134.48 132.4 134.376 132.544 134.168L132.952 133.568C133.016 133.488 133.112 133.36 133.24 133.184C133.368 133.008 133.472 132.88 133.552 132.8C133.632 132.704 133.704 132.656 133.768 132.656C133.896 132.656 134.248 132.896 134.824 133.376C135.416 133.84 135.832 134.224 136.072 134.528C136.136 134.592 136.168 134.68 136.168 134.792C136.168 134.904 136.128 134.992 136.048 135.056C135.92 135.136 135.768 135.176 135.592 135.176H119.824C118.816 135.192 117.76 135.28 116.656 135.44H116.536C116.312 135.44 116.144 135.336 116.032 135.128L115.936 134.936C115.872 134.776 115.84 134.68 115.84 134.648C115.84 134.552 115.88 134.472 115.96 134.408C116.04 134.36 116.152 134.344 116.296 134.36C116.84 134.408 117.664 134.448 118.768 134.48H124.072C124.232 134.48 124.352 134.432 124.432 134.336C124.528 134.256 124.576 134.136 124.576 133.976V129.8C124.576 129.64 124.528 129.52 124.432 129.44C124.352 129.344 124.232 129.296 124.072 129.296H122.56C121.584 129.312 120.528 129.4 119.392 129.56H119.248C119.024 129.56 118.864 129.456 118.768 129.248L118.672 129.08C118.624 128.984 118.6 128.896 118.6 128.816C118.6 128.576 118.76 128.472 119.08 128.504C119.624 128.552 120.448 128.592 121.552 128.624H124.072C124.232 128.624 124.352 128.584 124.432 128.504C124.528 128.408 124.576 128.28 124.576 128.12V124.568C124.576 124.408 124.528 124.288 124.432 124.208C124.352 124.112 124.232 124.064 124.072 124.064H122.8C121.92 124.08 120.96 124.168 119.92 124.328H119.776C119.552 124.328 119.392 124.216 119.296 123.992L119.2 123.824C119.152 123.728 119.128 123.64 119.128 123.56C119.128 123.32 119.288 123.216 119.608 123.248C120.152 123.296 120.984 123.336 122.104 123.368H128.896C129.168 123.368 129.376 123.264 129.52 123.056L129.856 122.6C129.936 122.504 130.016 122.4 130.096 122.288C130.192 122.16 130.28 122.048 130.36 121.952C130.456 121.856 130.536 121.808 130.6 121.808C130.728 121.808 131.04 122.008 131.536 122.408C132.048 122.808 132.416 123.144 132.64 123.416C132.72 123.496 132.76 123.584 132.76 123.68C132.76 123.76 132.712 123.848 132.616 123.944C132.504 124.024 132.36 124.064 132.184 124.064H127.384C127.224 124.064 127.096 124.112 127 124.208C126.92 124.288 126.88 124.408 126.88 124.568V128.12C126.88 128.28 126.92 128.408 127 128.504C127.096 128.584 127.224 128.624 127.384 128.624H129.856Z" fill="#344756"/>
<g clip-path="url(#clip0)">
<path d="M91.4454 75.966V90.3484H96.8388V75.966H118.053L106.727 65.1791H115.23L105.307 54.3923H112.39L99.6434 41.8076H105.99L93.9623 29.7803L81.935 41.8076H88.2992L75.5528 54.3923H82.6361L72.7122 65.1791H81.2159L69.8717 75.966H91.4454Z" fill="#CDEADF"/>
<path d="M104.318 43.6054H111.401L107.5 49.5L111.401 54.5H106L114.5 65.5H107.5L111.401 70.5725H120.5V90.3484H125.604V70.5725H146.818L135.492 56.19H143.977L134.071 43.6054H141.155L128.39 27.4251H134.755L122.727 12.1797L110.7 27.4251H117.064L104.318 43.6054Z" fill="#CDEADF"/>
<path d="M1.79782 86.3484H87.4454V71.966H65.8717L77.2159 61.1791H68.7122L78.6361 50.3923H71.5528L84.2992 37.8076H77.935L89.9623 25.7803L101.99 37.8076H95.6434L108.39 50.3923H101.307L111.23 61.1791H102.727L114.053 71.966H92.8388V86.3484H116.21V66.5725H109.019" stroke="#000" stroke-width="2" stroke-linecap="round" stroke-linejoin="round"/>
<path d="M103.626 44.9988L107.401 39.6054H100.318L113.064 23.4251H106.7L118.727 8.17969L130.755 23.4251H124.39L137.155 39.6054H130.071L139.977 52.19H131.492L142.818 66.5725H121.604V86.3484H144.202" stroke="#000" stroke-width="2" stroke-linecap="round" stroke-linejoin="round"/>
<path d="M65.8603 32.1783C65.8603 53.1227 38.4976 74.0492 38.4976 74.0492C38.4976 74.0492 11.117 53.2126 11.117 32.1783C11.1313 24.9258 14.0223 17.9753 19.1556 12.8521C24.289 7.7289 31.2452 4.85155 38.4976 4.85156C45.7484 4.85156 52.7028 7.72949 57.8332 12.8532C62.9637 17.9769 65.8507 24.9275 65.8603 32.1783Z" fill="#D3E7E9" fill-opacity="0.5"/>
<path d="M31.4976 25.0076C31.4976 23.334 32.1624 21.7289 33.3458 20.5455C34.5292 19.3621 36.1343 18.6973 37.8079 18.6973C39.4815 18.6973 41.0866 19.3621 42.27 20.5455C43.4534 21.7289 44.1182 23.334 44.1182 25.0076C44.1182 34.8955 31.5335 42.3564 31.5335 42.3564C31.5335 42.3564 18.9489 33.7449 18.9489 25.0076C18.9489 23.334 19.6138 21.7289 20.7972 20.5455C21.9806 19.3621 23.5856 18.6973 25.2592 18.6973C26.9345 18.6973 28.5413 19.3616 29.7276 20.5445C30.9139 21.7274 31.5827 23.3323 31.5875 25.0076" stroke="#000" stroke-width="2" stroke-linecap="round" stroke-linejoin="round"/>
<path d="M58.8603 29.1783C58.8603 50.1227 31.4976 71.0492 31.4976 71.0492C31.4976 71.0492 4.11697 50.2126 4.11697 29.1783C4.13126 21.9258 7.02233 14.9753 12.1556 9.8521C17.289 4.7289 24.2452 1.85155 31.4976 1.85156C38.7484 1.85156 45.7028 4.72949 50.8332 9.8532C55.9637 14.9769 58.8507 21.9275 58.8603 29.1783V29.1783Z" stroke="#000" stroke-width="2" stroke-linecap="round" stroke-linejoin="round"/>
</g>
<path d="M281.32 118.76L281.608 118.376C281.672 118.296 281.752 118.2 281.848 118.088C281.96 117.96 282.048 117.864 282.112 117.8C282.176 117.736 282.24 117.704 282.304 117.704C282.416 117.704 282.688 117.896 283.12 118.28C283.552 118.664 283.88 119.008 284.104 119.312C284.168 119.392 284.2 119.48 284.2 119.576C284.2 119.704 284.128 119.808 283.984 119.888L283.864 119.912C283.576 120.008 283.432 120.208 283.432 120.512C283.4 122.56 283.344 124.16 283.264 125.312C283.184 126.448 283.064 127.32 282.904 127.928C282.76 128.52 282.544 128.952 282.256 129.224C281.856 129.624 281.296 129.88 280.576 129.992H280.528C280.208 129.992 280.048 129.824 280.048 129.488C280.016 129.04 279.936 128.728 279.808 128.552C279.632 128.344 279.392 128.176 279.088 128.048C278.8 127.92 278.656 127.808 278.656 127.712C278.656 127.616 278.784 127.568 279.04 127.568C279.264 127.568 279.472 127.576 279.664 127.592C279.856 127.608 280.016 127.616 280.144 127.616C280.304 127.616 280.424 127.6 280.504 127.568C280.584 127.536 280.656 127.48 280.72 127.4C280.912 127.208 281.048 126.592 281.128 125.552C281.224 124.496 281.296 122.768 281.344 120.368C281.344 120.208 281.304 120.088 281.224 120.008C281.16 119.912 281.072 119.864 280.96 119.864L280.768 119.912L278.92 120.632C278.648 120.728 278.512 120.92 278.512 121.208V124.976C278.544 126.72 278.6 128.48 278.68 130.256V130.376C278.68 130.584 278.608 130.752 278.464 130.88C278.272 131.04 278.024 131.176 277.72 131.288C277.432 131.4 277.144 131.456 276.856 131.456C276.68 131.456 276.528 131.408 276.4 131.312C276.288 131.216 276.232 131.104 276.232 130.976C276.296 130.064 276.344 129.16 276.376 128.264C276.424 127.368 276.456 126.24 276.472 124.88V122.192C276.472 121.888 276.344 121.736 276.088 121.736L275.896 121.784L274.384 122.384C274.112 122.496 273.976 122.688 273.976 122.96V132.128C273.976 132.48 274.088 132.728 274.312 132.872C274.536 133.016 274.96 133.088 275.584 133.088H278.848C280.304 133.088 281.264 133.056 281.728 132.992C282.08 132.976 282.328 132.856 282.472 132.632C282.712 132.28 283.032 131.28 283.432 129.632C283.528 129.328 283.616 129.176 283.696 129.176C283.776 129.176 283.816 129.344 283.816 129.68L283.888 132.32C283.888 132.576 284.024 132.768 284.296 132.896C284.52 133.008 284.672 133.128 284.752 133.256C284.848 133.384 284.896 133.536 284.896 133.712C284.896 134.112 284.728 134.416 284.392 134.624C284.056 134.832 283.448 134.984 282.568 135.08C281.688 135.176 280.4 135.224 278.704 135.224H275.392C274.48 135.224 273.776 135.152 273.28 135.008C272.784 134.864 272.424 134.608 272.2 134.24C271.992 133.888 271.888 133.368 271.888 132.68V123.968C271.888 123.664 271.768 123.512 271.528 123.512L271.312 123.56L269.776 124.136C269.68 124.184 269.584 124.208 269.488 124.208C269.36 124.208 269.248 124.144 269.152 124.016L269.104 123.896C269.104 123.736 269.232 123.608 269.488 123.512L271.48 122.72C271.752 122.608 271.888 122.416 271.888 122.144V119.12C271.888 118.048 271.84 117.072 271.744 116.192V116.144C271.744 115.856 271.864 115.712 272.104 115.712L272.32 115.76C273.824 116.16 274.576 116.472 274.576 116.696C274.576 116.776 274.512 116.856 274.384 116.936L274.312 116.984C274.088 117.128 273.976 117.328 273.976 117.584V121.16C273.976 121.464 274.104 121.616 274.36 121.616L274.552 121.568L276.064 120.968C276.336 120.856 276.472 120.664 276.472 120.392V117.32C276.472 116.232 276.424 115.232 276.328 114.32V114.272C276.328 113.984 276.456 113.84 276.712 113.84C276.792 113.84 276.856 113.848 276.904 113.864C278.376 114.248 279.112 114.552 279.112 114.776C279.112 114.856 279.048 114.936 278.92 115.016L278.848 115.064C278.624 115.208 278.512 115.408 278.512 115.664V119.408C278.512 119.552 278.544 119.664 278.608 119.744C278.672 119.824 278.76 119.864 278.872 119.864C278.92 119.864 278.992 119.848 279.088 119.816L280.912 119.096L281.128 119.024L281.32 118.76ZM268.24 121.136C268.4 121.136 268.536 121.016 268.648 120.776L268.936 120.248C268.984 120.152 269.056 120.024 269.152 119.864C269.264 119.688 269.352 119.56 269.416 119.48C269.48 119.4 269.544 119.36 269.608 119.36C269.752 119.36 270.088 119.664 270.616 120.272C271.144 120.88 271.408 121.272 271.408 121.448C271.392 121.704 271.2 121.832 270.832 121.832H268.528C268.368 121.832 268.24 121.88 268.144 121.976C268.064 122.056 268.024 122.176 268.024 122.336V128.504C268.024 128.632 268.056 128.736 268.12 128.816C268.184 128.896 268.272 128.936 268.384 128.936L268.6 128.888L270.736 128C270.88 127.936 271 127.904 271.096 127.904C271.192 127.888 271.248 127.896 271.264 127.928V127.952C271.264 128.064 271.168 128.192 270.976 128.336C268.768 130.096 266.776 131.576 265 132.776C264.824 132.904 264.712 133.016 264.664 133.112L264.616 133.232C264.568 133.36 264.48 133.424 264.352 133.424C264.192 133.424 264.064 133.312 263.968 133.088L263.272 131.432C263.24 131.304 263.224 131.224 263.224 131.192C263.224 131.016 263.336 130.88 263.56 130.784C263.976 130.656 264.64 130.424 265.552 130.088C265.824 129.992 265.96 129.8 265.96 129.512V122.336C265.96 122.176 265.912 122.056 265.816 121.976C265.736 121.88 265.616 121.832 265.456 121.832H265.144C264.792 121.864 264.48 121.92 264.208 122C264.112 122.032 264.04 122.048 263.992 122.048C263.8 122.048 263.648 121.944 263.536 121.736L263.464 121.616C263.416 121.52 263.392 121.432 263.392 121.352C263.392 121.256 263.432 121.184 263.512 121.136C263.592 121.072 263.712 121.048 263.872 121.064L265.072 121.136H265.456C265.616 121.136 265.736 121.096 265.816 121.016C265.912 120.92 265.96 120.792 265.96 120.632V119.072C265.96 117.472 265.888 116.04 265.744 114.776V114.68C265.744 114.424 265.864 114.296 266.104 114.296C266.184 114.296 266.248 114.304 266.296 114.32C267.864 114.704 268.648 115.008 268.648 115.232C268.648 115.296 268.584 115.368 268.456 115.448L268.36 115.496C268.136 115.64 268.024 115.848 268.024 116.12V120.632C268.024 120.968 268.096 121.136 268.24 121.136ZM309.976 129.488C310.072 129.488 310.104 129.656 310.072 129.992L309.712 133.28V133.448C309.712 133.592 309.744 133.752 309.808 133.928C310.048 134.392 310.168 134.808 310.168 135.176C310.168 135.416 310.104 135.584 309.976 135.68C309.768 135.872 309.52 135.968 309.232 135.968C308.88 135.968 308.504 135.832 308.104 135.56C307.72 135.304 307.36 134.968 307.024 134.552C306.288 133.72 305.624 132.68 305.032 131.432C304.936 131.24 304.816 131.144 304.672 131.144C304.576 131.144 304.464 131.208 304.336 131.336C302.608 133.16 300.392 134.592 297.688 135.632C297.496 135.696 297.384 135.728 297.352 135.728C297.256 135.728 297.192 135.688 297.16 135.608V135.536C297.16 135.424 297.272 135.304 297.496 135.176C298.872 134.408 300.088 133.56 301.144 132.632C302.2 131.688 303.128 130.616 303.928 129.416C304.024 129.272 304.072 129.136 304.072 129.008C304.072 128.96 304.056 128.872 304.024 128.744C303.32 126.232 302.864 123.12 302.656 119.408C302.64 119.072 302.472 118.904 302.152 118.904H299.296C298.32 118.92 297.264 119.008 296.128 119.168H295.984C295.76 119.168 295.6 119.064 295.504 118.856L295.432 118.712C295.384 118.616 295.36 118.52 295.36 118.424C295.36 118.328 295.4 118.256 295.48 118.208C295.56 118.144 295.672 118.12 295.816 118.136C296.36 118.184 297.184 118.224 298.288 118.256H302.08C302.416 118.256 302.584 118.08 302.584 117.728C302.536 116.72 302.512 115.688 302.512 114.632C302.512 114.456 302.568 114.328 302.68 114.248C302.792 114.168 302.936 114.152 303.112 114.2C304.472 114.552 305.152 114.832 305.152 115.04C305.152 115.12 305.088 115.2 304.96 115.28L304.888 115.328C304.68 115.472 304.576 115.672 304.576 115.928V117.752C304.576 117.912 304.616 118.04 304.696 118.136C304.792 118.216 304.92 118.256 305.08 118.256H306.568C306.824 118.256 307.024 118.152 307.168 117.944C307.328 117.72 307.344 117.592 307.216 117.56L307 117.488C306.888 117.44 306.808 117.376 306.76 117.296C306.712 117.2 306.664 117.08 306.616 116.936C306.472 116.36 306.184 115.8 305.752 115.256C305.528 114.968 305.44 114.808 305.488 114.776C305.552 114.744 305.624 114.728 305.704 114.728C305.816 114.728 305.904 114.736 305.968 114.752C306.816 114.88 307.44 115.12 307.84 115.472C308.24 115.808 308.44 116.176 308.44 116.576C308.44 116.64 308.456 116.752 308.488 116.912C308.52 117.056 308.584 117.168 308.68 117.248L309.736 118.232C309.896 118.36 309.976 118.496 309.976 118.64C309.976 118.72 309.928 118.784 309.832 118.832C309.736 118.88 309.616 118.904 309.472 118.904H305.104C304.96 118.904 304.84 118.944 304.744 119.024C304.664 119.104 304.624 119.216 304.624 119.36C304.624 121.328 304.824 123.368 305.224 125.48C305.272 125.736 305.352 125.936 305.464 126.08C305.576 126.208 305.656 126.208 305.704 126.08L305.92 125.528C306.176 124.888 306.4 124.168 306.592 123.368C306.784 122.568 306.92 121.84 307 121.184C307.048 120.896 307.184 120.752 307.408 120.752L307.624 120.8C309.08 121.312 309.808 121.656 309.808 121.832C309.808 121.896 309.728 121.952 309.568 122L309.496 122.024C309.256 122.088 309.088 122.248 308.992 122.504C308.224 125 307.352 127.056 306.376 128.672C306.296 128.768 306.256 128.896 306.256 129.056C306.256 129.184 306.272 129.28 306.304 129.344C306.848 130.656 307.472 131.656 308.176 132.344C308.32 132.488 308.44 132.56 308.536 132.56C308.664 132.56 308.768 132.464 308.848 132.272C309.104 131.728 309.4 130.944 309.736 129.92C309.816 129.632 309.896 129.488 309.976 129.488ZM295.36 128.744C293.68 130.104 291.992 131.392 290.296 132.608C290.12 132.752 290.008 132.864 289.96 132.944C289.96 132.992 289.944 133.032 289.912 133.064C289.848 133.192 289.76 133.256 289.648 133.256C289.488 133.256 289.36 133.16 289.264 132.968L288.424 131.336C288.376 131.24 288.352 131.152 288.352 131.072C288.352 130.88 288.472 130.752 288.712 130.688L290.608 129.992C290.88 129.896 291.016 129.704 291.016 129.416V121.88C291.016 121.72 290.968 121.6 290.872 121.52C290.792 121.424 290.672 121.376 290.512 121.376H290.2C289.864 121.408 289.568 121.464 289.312 121.544C289.184 121.576 289.104 121.592 289.072 121.592C288.88 121.592 288.736 121.488 288.64 121.28L288.568 121.16C288.52 121.064 288.496 120.976 288.496 120.896C288.496 120.8 288.536 120.728 288.616 120.68C288.696 120.616 288.816 120.592 288.976 120.608L290.128 120.68H290.512C290.672 120.68 290.792 120.64 290.872 120.56C290.968 120.464 291.016 120.336 291.016 120.176V119.024C291.016 117.408 290.944 115.976 290.8 114.728V114.632C290.8 114.376 290.92 114.248 291.16 114.248C291.24 114.248 291.304 114.256 291.352 114.272C292.248 114.496 292.872 114.68 293.224 114.824C293.592 114.952 293.776 115.064 293.776 115.16C293.776 115.24 293.712 115.32 293.584 115.4L293.488 115.448C293.264 115.592 293.152 115.8 293.152 116.072V120.176C293.152 120.512 293.192 120.68 293.272 120.68C293.336 120.68 293.44 120.568 293.584 120.344L294.112 119.48C294.208 119.32 294.336 119.24 294.496 119.24C294.608 119.24 294.72 119.296 294.832 119.408L296.056 120.656C296.216 120.816 296.384 120.936 296.56 121.016L297.592 121.472C297.768 121.552 297.968 121.592 298.192 121.592H299.536C299.792 121.592 300 121.488 300.16 121.28L300.304 121.088C300.352 121.024 300.408 120.944 300.472 120.848C300.552 120.752 300.616 120.68 300.664 120.632C300.728 120.584 300.792 120.56 300.856 120.56C300.968 120.56 301.192 120.696 301.528 120.968C301.864 121.224 302.12 121.472 302.296 121.712C302.376 121.824 302.416 121.912 302.416 121.976C302.416 122.088 302.344 122.184 302.2 122.264C301.96 122.456 301.84 122.64 301.84 122.816V124.136C301.888 125.496 301.928 126.504 301.96 127.16V127.28C301.96 127.504 301.88 127.664 301.72 127.76C301.544 127.888 301.328 128 301.072 128.096C300.816 128.176 300.584 128.216 300.376 128.216C300.248 128.216 300.144 128.16 300.064 128.048C300.032 128 300.016 127.928 300.016 127.832C300.016 127.752 300.032 127.664 300.064 127.568C300.064 127.504 300.072 127.448 300.088 127.4C300.088 127.272 300.04 127.168 299.944 127.088C299.864 127.008 299.744 126.968 299.584 126.968H298.24C298.08 126.968 297.952 127.008 297.856 127.088C297.776 127.168 297.736 127.28 297.736 127.424C297.752 127.552 297.76 127.696 297.76 127.856V128.048C297.76 128.256 297.704 128.408 297.592 128.504C297.272 128.76 296.848 128.888 296.32 128.888C296.176 128.888 296.056 128.84 295.96 128.744C295.864 128.648 295.816 128.536 295.816 128.408L295.36 128.744ZM293.656 121.376C293.496 121.376 293.368 121.424 293.272 121.52C293.192 121.6 293.152 121.72 293.152 121.88V128.408C293.152 128.536 293.184 128.64 293.248 128.72C293.312 128.8 293.4 128.84 293.512 128.84L293.728 128.792L295.456 128.12C295.712 128.024 295.848 127.84 295.864 127.568C295.944 126.496 296 125.256 296.032 123.848V121.88C296.032 121.528 295.984 121.352 295.888 121.352C295.856 121.368 295.808 121.376 295.744 121.376H293.656ZM300.088 122.768C300.088 122.608 300.04 122.488 299.944 122.408C299.864 122.312 299.744 122.264 299.584 122.264H298.24C298.08 122.264 297.952 122.312 297.856 122.408C297.776 122.488 297.736 122.608 297.736 122.768V125.768C297.736 125.928 297.776 126.056 297.856 126.152C297.952 126.232 298.08 126.272 298.24 126.272H299.584C299.744 126.272 299.864 126.232 299.944 126.152C300.04 126.056 300.088 125.928 300.088 125.768V122.768ZM302.416 129.032C302.56 128.984 302.672 128.96 302.752 128.96C302.864 128.96 302.936 128.992 302.968 129.056V129.08C302.968 129.176 302.856 129.288 302.632 129.416C300.776 130.456 298.552 131.576 295.96 132.776C295.768 132.856 295.64 132.952 295.576 133.064C295.576 133.08 295.56 133.12 295.528 133.184C295.464 133.296 295.384 133.352 295.288 133.352C295.128 133.352 294.992 133.248 294.88 133.04L294.52 132.368L294.208 131.72C294.128 131.56 294.088 131.432 294.088 131.336C294.088 131.224 294.12 131.16 294.184 131.144C295.56 130.872 298.304 130.168 302.416 129.032ZM329.296 115.232C329.552 115.232 329.76 115.128 329.92 114.92L330.256 114.488C330.32 114.408 330.408 114.296 330.52 114.152C330.632 114.008 330.72 113.904 330.784 113.84C330.864 113.76 330.936 113.72 331 113.72C331.128 113.72 331.44 113.904 331.936 114.272C332.432 114.624 332.792 114.936 333.016 115.208C333.112 115.304 333.16 115.4 333.16 115.496C333.16 115.576 333.112 115.656 333.016 115.736C332.904 115.8 332.76 115.832 332.584 115.832H325.912C325.752 115.832 325.624 115.88 325.528 115.976C325.448 116.056 325.408 116.176 325.408 116.336V118.208C325.408 118.368 325.448 118.496 325.528 118.592C325.624 118.672 325.752 118.712 325.912 118.712H330.736C330.992 118.712 331.192 118.608 331.336 118.4L331.696 117.92C331.744 117.856 331.824 117.744 331.936 117.584C332.064 117.424 332.168 117.304 332.248 117.224C332.328 117.144 332.4 117.104 332.464 117.104C332.592 117.104 332.912 117.304 333.424 117.704C333.952 118.088 334.328 118.416 334.552 118.688C334.632 118.8 334.672 118.896 334.672 118.976C334.672 119.072 334.624 119.16 334.528 119.24C334.448 119.304 334.32 119.336 334.144 119.336H318.16C317.152 119.352 316.096 119.44 314.992 119.6H314.872C314.632 119.6 314.456 119.496 314.344 119.288L314.272 119.168C314.224 119.072 314.2 118.976 314.2 118.88C314.2 118.784 314.24 118.712 314.32 118.664C314.4 118.6 314.512 118.576 314.656 118.592C315.2 118.64 316.024 118.68 317.128 118.712H322.72C322.88 118.712 323 118.672 323.08 118.592C323.176 118.496 323.224 118.368 323.224 118.208V116.336C323.224 116.176 323.176 116.056 323.08 115.976C323 115.88 322.88 115.832 322.72 115.832H319.984C319.008 115.848 317.952 115.936 316.816 116.096H316.672C316.448 116.096 316.288 115.992 316.192 115.784L316.144 115.688C316.096 115.592 316.072 115.496 316.072 115.4C316.072 115.304 316.112 115.232 316.192 115.184C316.272 115.12 316.384 115.096 316.528 115.112C317.072 115.16 317.896 115.2 319 115.232H329.296ZM328.48 121.112C328.736 121.112 328.936 121.008 329.08 120.8L329.344 120.44C329.408 120.36 329.472 120.264 329.536 120.152C329.616 120.04 329.696 119.944 329.776 119.864C329.856 119.784 329.928 119.744 329.992 119.744C330.12 119.744 330.416 119.936 330.88 120.32C331.344 120.704 331.696 121.048 331.936 121.352C332 121.432 332.032 121.52 332.032 121.616C332.032 121.728 331.96 121.832 331.816 121.928L331.672 122C331.4 122.096 331.264 122.28 331.264 122.552V125.6C331.296 127.344 331.352 129.104 331.432 130.88V130.976C331.432 131.2 331.344 131.368 331.168 131.48C330.928 131.608 330.64 131.728 330.304 131.84C329.984 131.936 329.696 131.984 329.44 131.984C329.328 131.984 329.24 131.944 329.176 131.864C329.112 131.768 329.08 131.64 329.08 131.48V131.432C329.08 131.272 329.032 131.152 328.936 131.072C328.856 130.976 328.736 130.928 328.576 130.928H320.344C320.184 130.928 320.056 130.976 319.96 131.072C319.88 131.152 319.84 131.272 319.84 131.432V131.672C319.84 131.752 319.744 131.856 319.552 131.984C319.376 132.096 319.144 132.2 318.856 132.296C318.568 132.376 318.28 132.416 317.992 132.416C317.848 132.416 317.728 132.368 317.632 132.272C317.536 132.176 317.488 132.064 317.488 131.936C317.584 130.448 317.648 128.944 317.68 127.424V124.904C317.68 123.336 317.608 121.928 317.464 120.68V120.584C317.464 120.344 317.568 120.224 317.776 120.224C317.872 120.224 317.952 120.24 318.016 120.272L319.72 120.992C319.896 121.072 320.096 121.112 320.32 121.112H328.48ZM328.576 124.112C328.736 124.112 328.856 124.072 328.936 123.992C329.032 123.896 329.08 123.768 329.08 123.608V122.312C329.08 122.152 329.032 122.032 328.936 121.952C328.856 121.856 328.736 121.808 328.576 121.808H320.344C320.184 121.808 320.056 121.856 319.96 121.952C319.88 122.032 319.84 122.152 319.84 122.312V123.608C319.84 123.768 319.88 123.896 319.96 123.992C320.056 124.072 320.184 124.112 320.344 124.112H328.576ZM319.84 126.656C319.84 126.816 319.88 126.944 319.96 127.04C320.056 127.12 320.184 127.16 320.344 127.16H328.576C328.736 127.16 328.856 127.12 328.936 127.04C329.032 126.944 329.08 126.816 329.08 126.656V125.312C329.08 125.152 329.032 125.032 328.936 124.952C328.856 124.856 328.736 124.808 328.576 124.808H320.344C320.184 124.808 320.056 124.856 319.96 124.952C319.88 125.032 319.84 125.152 319.84 125.312V126.656ZM320.344 127.856C320.184 127.856 320.056 127.904 319.96 128C319.88 128.08 319.84 128.2 319.84 128.36V129.728C319.84 129.888 319.88 130.016 319.96 130.112C320.056 130.192 320.184 130.232 320.344 130.232H328.576C328.736 130.232 328.856 130.192 328.936 130.112C329.032 130.016 329.08 129.888 329.08 129.728V128.36C329.08 128.2 329.032 128.08 328.936 128C328.856 127.904 328.736 127.856 328.576 127.856H320.344ZM321.088 131.696C321.216 131.568 321.344 131.504 321.472 131.504C321.584 131.504 321.696 131.552 321.808 131.648L322.6 132.32C322.744 132.448 322.92 132.568 323.128 132.68C323.672 133.016 323.944 133.248 323.944 133.376C323.944 133.488 323.808 133.544 323.536 133.544H323.248C323.088 133.544 322.88 133.6 322.624 133.712C321.648 134.208 320.432 134.656 318.976 135.056C317.536 135.472 316.064 135.784 314.56 135.992H314.416C314.224 135.992 314.104 135.952 314.056 135.872V135.824C314.056 135.728 314.2 135.632 314.488 135.536C315.592 135.152 316.696 134.672 317.8 134.096C319.128 133.424 320.224 132.624 321.088 131.696ZM325.888 132.608C325.6 132.512 325.456 132.416 325.456 132.32C325.456 132.256 325.504 132.208 325.6 132.176C325.696 132.144 325.824 132.136 325.984 132.152C327.952 132.28 329.544 132.504 330.76 132.824C331.976 133.144 332.84 133.504 333.352 133.904C333.864 134.288 334.12 134.672 334.12 135.056C334.12 135.344 333.992 135.576 333.736 135.752C333.496 135.944 333.208 136.04 332.872 136.04C332.456 136.04 332.096 135.92 331.792 135.68C331.184 135.136 330.376 134.592 329.368 134.048C328.36 133.504 327.2 133.024 325.888 132.608ZM356.512 121.64C356.16 121.64 356 121.816 356.032 122.168C356.48 127.512 357.952 131.456 360.448 134C360.464 134.016 360.512 134.064 360.592 134.144C360.672 134.24 360.712 134.32 360.712 134.384C360.712 134.432 360.664 134.464 360.568 134.48C360.488 134.512 360.384 134.544 360.256 134.576C359.776 134.688 359.344 135 358.96 135.512C358.848 135.672 358.728 135.752 358.6 135.752C358.488 135.752 358.392 135.68 358.312 135.536C357.48 134.128 356.856 132.504 356.44 130.664C356.04 128.808 355.768 126.528 355.624 123.824C355.384 126.432 354.856 128.704 354.04 130.64C353.24 132.576 351.96 134.272 350.2 135.728C349.944 135.936 349.76 135.976 349.648 135.848C349.616 135.784 349.6 135.736 349.6 135.704C349.6 135.624 349.664 135.496 349.792 135.32C351.136 133.672 352.08 131.792 352.624 129.68C353.168 127.568 353.496 125.064 353.608 122.168V122.12C353.608 121.96 353.56 121.84 353.464 121.76C353.384 121.68 353.272 121.64 353.128 121.64H351.472C351.184 121.64 351.016 121.56 350.968 121.4C350.92 121.272 350.8 121.24 350.608 121.304C350.416 121.48 350.32 121.656 350.32 121.832V132.92C350.32 133.656 350.208 134.208 349.984 134.576C349.776 134.944 349.328 135.192 348.64 135.32L348.496 135.344C348.256 135.344 348.112 135.184 348.064 134.864C348 134.448 347.92 134.168 347.824 134.024C347.664 133.8 347.448 133.632 347.176 133.52C346.888 133.424 346.744 133.32 346.744 133.208C346.744 133.128 346.864 133.088 347.104 133.088C347.312 133.088 347.504 133.096 347.68 133.112C347.856 133.128 347.992 133.136 348.088 133.136C348.216 133.136 348.304 133.104 348.352 133.04C348.4 132.976 348.424 132.872 348.424 132.728V129.92C348.424 129.712 348.408 129.576 348.376 129.512C348.344 129.432 348.288 129.416 348.208 129.464C348.112 129.512 348 129.536 347.872 129.536H346.288C346.128 129.536 346 129.584 345.904 129.68C345.824 129.76 345.784 129.88 345.784 130.04V131.024L345.832 132.176C345.832 132.48 345.848 132.92 345.88 133.496V133.616C345.88 133.84 345.8 134 345.64 134.096C345.288 134.32 344.848 134.432 344.32 134.432C344.192 134.432 344.088 134.384 344.008 134.288C343.928 134.192 343.888 134.08 343.888 133.952C343.952 133.232 344 132.304 344.032 131.168V130.04C344.032 129.88 343.984 129.76 343.888 129.68C343.808 129.584 343.688 129.536 343.528 129.536H343.36C343.152 129.552 342.936 129.6 342.712 129.68C342.584 129.712 342.496 129.728 342.448 129.728C342.272 129.728 342.136 129.632 342.04 129.44C341.976 129.296 341.896 129.224 341.8 129.224C341.72 129.224 341.68 129.288 341.68 129.416C341.712 131.16 341.768 132.92 341.848 134.696V134.816C341.848 135.024 341.776 135.192 341.632 135.32C341.216 135.64 340.704 135.8 340.096 135.8C339.936 135.8 339.8 135.752 339.688 135.656C339.576 135.56 339.52 135.448 339.52 135.32C339.584 134.376 339.64 133.464 339.688 132.584C339.736 131.688 339.768 130.52 339.784 129.08V124.28C339.784 122.712 339.712 121.304 339.568 120.056V119.96C339.568 119.704 339.672 119.576 339.88 119.576C339.976 119.576 340.056 119.592 340.12 119.624L341.68 120.272C341.856 120.352 342.056 120.392 342.28 120.392H343.36C343.52 120.392 343.64 120.352 343.72 120.272C343.816 120.176 343.864 120.048 343.864 119.888V118.472C343.864 118.312 343.816 118.192 343.72 118.112C343.64 118.016 343.52 117.968 343.36 117.968H342.328C341.576 117.984 340.776 118.072 339.928 118.232H339.784C339.56 118.232 339.4 118.128 339.304 117.92L339.208 117.728C339.16 117.632 339.136 117.536 339.136 117.44C339.136 117.344 339.176 117.272 339.256 117.224C339.336 117.16 339.448 117.136 339.592 117.152C340.136 117.2 340.96 117.24 342.064 117.272H343.36C343.696 117.272 343.864 117.104 343.864 116.768C343.832 115.808 343.784 114.96 343.72 114.224V114.176C343.72 114.048 343.752 113.944 343.816 113.864C343.88 113.784 343.968 113.744 344.08 113.744C344.128 113.744 344.2 113.76 344.296 113.792C345.816 114.16 346.576 114.456 346.576 114.68C346.576 114.76 346.512 114.84 346.384 114.92L346.312 114.968C346.088 115.112 345.976 115.312 345.976 115.568V116.768C345.976 116.928 346.016 117.056 346.096 117.152C346.192 117.232 346.32 117.272 346.48 117.272H347.32C347.576 117.272 347.776 117.168 347.92 116.96L348.304 116.432C348.368 116.352 348.456 116.232 348.568 116.072C348.696 115.912 348.792 115.792 348.856 115.712C348.936 115.632 349.008 115.592 349.072 115.592C349.2 115.592 349.52 115.808 350.032 116.24C350.544 116.656 350.912 117.008 351.136 117.296C351.216 117.408 351.256 117.504 351.256 117.584C351.256 117.68 351.208 117.768 351.112 117.848C350.984 117.928 350.832 117.968 350.656 117.968H346.48C346.32 117.968 346.192 118.016 346.096 118.112C346.016 118.192 345.976 118.312 345.976 118.472V119.888C345.976 120.048 346.016 120.176 346.096 120.272C346.192 120.352 346.32 120.392 346.48 120.392H347.8C348.072 120.392 348.28 120.296 348.424 120.104L348.808 119.648C348.888 119.52 349.008 119.456 349.168 119.456C349.312 119.456 349.424 119.496 349.504 119.576L350.92 120.728C351.112 120.872 351.32 120.944 351.544 120.944H353.128C353.464 120.944 353.64 120.776 353.656 120.44V118.712C353.656 117 353.576 115.512 353.416 114.248V114.2C353.416 114.04 353.464 113.928 353.56 113.864C353.656 113.784 353.792 113.752 353.968 113.768C355.632 113.928 356.464 114.112 356.464 114.32C356.464 114.368 356.4 114.44 356.272 114.536L356.176 114.608C355.968 114.752 355.864 114.952 355.864 115.208L355.84 116.96C355.84 117.776 355.824 118.936 355.792 120.44V120.488C355.792 120.632 355.832 120.744 355.912 120.824C356.008 120.904 356.128 120.944 356.272 120.944H356.776C357.032 120.944 357.232 120.832 357.376 120.608L357.688 120.128C357.736 120.064 357.816 119.952 357.928 119.792C358.04 119.632 358.128 119.512 358.192 119.432C358.272 119.352 358.344 119.312 358.408 119.312C358.536 119.312 358.832 119.52 359.296 119.936C359.76 120.352 360.096 120.704 360.304 120.992C360.384 121.104 360.424 121.192 360.424 121.256C360.424 121.336 360.392 121.408 360.328 121.472C360.232 121.584 360.064 121.64 359.824 121.64H356.512ZM358.816 119.072C358.624 119.072 358.44 119.016 358.264 118.904C358.088 118.808 357.984 118.616 357.952 118.328C357.888 117.896 357.752 117.44 357.544 116.96C357.336 116.48 357.096 116.04 356.824 115.64C356.6 115.368 356.528 115.2 356.608 115.136C356.624 115.12 356.672 115.112 356.752 115.112C356.832 115.112 356.944 115.136 357.088 115.184C358.032 115.52 358.72 115.936 359.152 116.432C359.6 116.912 359.824 117.4 359.824 117.896C359.824 118.232 359.728 118.512 359.536 118.736C359.344 118.96 359.104 119.072 358.816 119.072ZM347.824 125.072C347.936 125.184 348.04 125.24 348.136 125.24C348.216 125.24 348.28 125.2 348.328 125.12C348.392 125.04 348.424 124.936 348.424 124.808V121.592C348.424 121.432 348.376 121.312 348.28 121.232C348.2 121.136 348.08 121.088 347.92 121.088H342.184C342.024 121.088 341.896 121.136 341.8 121.232C341.72 121.312 341.68 121.432 341.68 121.592V128.192C341.68 128.512 341.832 128.696 342.136 128.744C342.376 128.776 342.752 128.808 343.264 128.84H343.528C343.688 128.84 343.808 128.8 343.888 128.72C343.984 128.624 344.032 128.496 344.032 128.336V126.608C344.032 126.448 343.984 126.328 343.888 126.248C343.808 126.152 343.688 126.104 343.528 126.104H343.384C343.112 126.136 342.912 126.176 342.784 126.224C342.688 126.272 342.592 126.296 342.496 126.296C342.336 126.296 342.208 126.2 342.112 126.008L342.064 125.912C342.016 125.816 341.992 125.72 341.992 125.624C341.992 125.4 342.144 125.304 342.448 125.336C342.784 125.368 343.272 125.4 343.912 125.432H344.464C344.784 125.432 344.976 125.288 345.04 125C345.264 124.104 345.408 123 345.472 121.688C345.504 121.4 345.648 121.256 345.904 121.256C345.984 121.256 346.048 121.264 346.096 121.28C347.232 121.6 347.8 121.84 347.8 122C347.8 122.064 347.728 122.128 347.584 122.192L347.488 122.24C347.264 122.352 347.112 122.504 347.032 122.696C346.664 123.48 346.272 124.192 345.856 124.832C345.76 124.976 345.712 125.112 345.712 125.24C345.712 125.368 345.776 125.432 345.904 125.432H345.928C346.184 125.432 346.384 125.328 346.528 125.12L346.744 124.808C346.84 124.664 346.928 124.568 347.008 124.52C347.088 124.456 347.144 124.44 347.176 124.472C347.368 124.632 347.584 124.832 347.824 125.072ZM343.336 125C343.224 124.936 343.152 124.864 343.12 124.784C343.088 124.688 343.064 124.56 343.048 124.4C343.048 123.648 342.888 122.832 342.568 121.952C342.44 121.632 342.424 121.456 342.52 121.424L342.616 121.4C342.664 121.4 342.792 121.464 343 121.592C343.544 121.992 343.936 122.4 344.176 122.816C344.432 123.232 344.56 123.624 344.56 123.992C344.56 124.312 344.48 124.576 344.32 124.784C344.16 124.992 343.96 125.096 343.72 125.096C343.576 125.096 343.448 125.064 343.336 125ZM347.8 128.504C347.912 128.616 348.024 128.672 348.136 128.672C348.216 128.672 348.28 128.632 348.328 128.552C348.392 128.472 348.424 128.368 348.424 128.24V126.512C348.424 126.304 348.408 126.168 348.376 126.104C348.344 126.024 348.288 126 348.208 126.032C348.112 126.08 348.008 126.104 347.896 126.104H346.288C346.128 126.104 346 126.152 345.904 126.248C345.824 126.328 345.784 126.448 345.784 126.608V128.336C345.784 128.48 345.808 128.6 345.856 128.696C345.904 128.792 345.968 128.84 346.048 128.84C346.208 128.84 346.36 128.728 346.504 128.504L346.696 128.216C346.792 128.072 346.88 127.968 346.96 127.904C347.04 127.84 347.096 127.824 347.128 127.856L347.8 128.504Z" fill="#344756"/>
<g clip-path="url(#clip1)">
<path d="M262.701 41.5405C270.91 41.5405 277.566 33.3239 277.566 23.1882C277.566 13.0525 270.91 4.83594 262.701 4.83594C254.491 4.83594 247.835 13.0525 247.835 23.1882C247.835 33.3239 254.491 41.5405 262.701 41.5405Z" fill="#CDEADF"/>
<path d="M279.089 17.0764C280.995 15.9032 283.183 15.269 285.421 15.2412C293.624 15.2412 300.286 23.463 300.286 33.5935C300.286 43.7239 293.624 51.9457 285.421 51.9457C278.795 51.9457 273.161 46.5685 271.253 39.0991" fill="#CDEADF"/>
<path d="M249.891 14.7554C249.891 14.7554 246.551 23.2525 255.507 31.9698" stroke="white" stroke-width="3.67045" stroke-linecap="round" stroke-linejoin="round"/>
<path d="M272.263 31.9883C273.102 36.0249 275.196 39.6929 278.246 42.4675" stroke="white" stroke-width="3.67045" stroke-linecap="round" stroke-linejoin="round"/>
<path d="M258.701 37.5405C266.91 37.5405 273.566 29.3239 273.566 19.1882C273.566 9.05252 266.91 0.835938 258.701 0.835938C250.491 0.835938 243.835 9.05252 243.835 19.1882C243.835 29.3239 250.491 37.5405 258.701 37.5405Z" stroke="#000" stroke-width="2" stroke-linecap="round" stroke-linejoin="round"/>
<path d="M275.089 13.0764C276.995 11.9032 279.183 11.269 281.421 11.2412C289.624 11.2412 296.286 19.463 296.286 29.5935C296.286 39.7239 289.624 47.9457 281.421 47.9457C274.795 47.9457 269.161 42.5685 267.253 35.0991" stroke="#000" stroke-width="2" stroke-linecap="round" stroke-linejoin="round"/>
<path d="M256.076 39.3018H257.765H259.563" stroke="#000" stroke-width="2" stroke-linecap="round" stroke-linejoin="round"/>
<path d="M257.544 40.2739C257.083 44.7845 258.177 49.3174 260.646 53.1205C264.775 59.3236 257.893 66.4443 257.765 75.2901" stroke="#000" stroke-width="2" stroke-linecap="round" stroke-linejoin="round"/>
<path d="M278.796 49.7808H280.503H282.302" stroke="#000" stroke-width="2" stroke-linecap="round" stroke-linejoin="round"/>
<path d="M281.072 50.772C281.304 52.5897 281.148 54.436 280.614 56.1888C280.079 57.9415 279.178 59.5607 277.97 60.9391C273.841 65.8392 280.742 71.4734 280.852 78.4472" stroke="#000" stroke-width="2" stroke-linecap="round" stroke-linejoin="round"/>
<path d="M323.409 33.2719C329.096 33.2719 333.705 28.6624 333.705 22.9763C333.705 17.2902 329.096 12.6807 323.409 12.6807C317.723 12.6807 313.114 17.2902 313.114 22.9763C313.114 28.6624 317.723 33.2719 323.409 33.2719Z" fill="#DCF3B3"/>
<path d="M374.869 33.2719C380.555 33.2719 385.165 28.6624 385.165 22.9763C385.165 17.2902 380.555 12.6807 374.869 12.6807C369.183 12.6807 364.574 17.2902 364.574 22.9763C364.574 28.6624 369.183 33.2719 374.869 33.2719Z" fill="#DCF3B3"/>
<path d="M349.139 46.9819C354.825 46.9819 359.435 42.3724 359.435 36.6862C359.435 31.0001 354.825 26.3906 349.139 26.3906C343.453 26.3906 338.844 31.0001 338.844 36.6862C338.844 42.3724 343.453 46.9819 349.139 46.9819Z" fill="#DCF3B3"/>
<path d="M313.114 84.7317V49.4953C313.115 48.4171 313.371 47.3545 313.86 46.3934C314.348 45.4324 315.057 44.6 315.927 43.9637C316.797 43.3275 317.805 42.9052 318.869 42.7311C319.934 42.5571 321.024 42.6361 322.051 42.9619L331.338 45.8799C335.509 47.2036 339.151 49.8196 341.737 53.3496C344.324 56.8796 345.721 61.1407 345.726 65.5168V84.7317C345.726 85.6418 345.364 86.5147 344.721 87.1583C344.077 87.8019 343.204 88.1635 342.294 88.1635H316.601C316.145 88.1708 315.693 88.0875 315.27 87.9183C314.848 87.7491 314.463 87.4974 314.138 87.178C313.814 86.8586 313.556 86.4778 313.38 86.0578C313.204 85.6378 313.114 85.187 313.114 84.7317Z" fill="#DCF3B3"/>
<path d="M383.458 84.7322V49.4959C383.456 48.4198 383.2 47.3594 382.713 46.4002C382.225 45.441 381.518 44.6099 380.65 43.974C379.782 43.3382 378.777 42.9153 377.715 42.7396C376.654 42.5639 375.566 42.6402 374.539 42.9625L365.253 45.8254C361.08 47.1466 357.436 49.7619 354.849 53.2925C352.263 56.823 350.867 61.0855 350.864 65.4623V84.7322C350.864 85.6424 351.226 86.5153 351.87 87.1589C352.513 87.8025 353.386 88.1641 354.296 88.1641H379.989C380.443 88.1689 380.893 88.0837 381.314 87.9134C381.735 87.7432 382.117 87.4911 382.44 87.172C382.762 86.8528 383.019 86.4728 383.193 86.054C383.368 85.6352 383.458 85.186 383.458 84.7322Z" fill="#DCF3B3"/>
<path d="M317.409 31.2719C323.096 31.2719 327.705 26.6624 327.705 20.9763C327.705 15.2902 323.096 10.6807 317.409 10.6807C311.723 10.6807 307.114 15.2902 307.114 20.9763C307.114 26.6624 311.723 31.2719 317.409 31.2719Z" stroke="#000" stroke-width="2" stroke-miterlimit="10"/>
<path d="M368.869 31.2719C374.555 31.2719 379.165 26.6624 379.165 20.9763C379.165 15.2902 374.555 10.6807 368.869 10.6807C363.183 10.6807 358.574 15.2902 358.574 20.9763C358.574 26.6624 363.183 31.2719 368.869 31.2719Z" stroke="#000" stroke-width="2" stroke-miterlimit="10"/>
<path d="M343.139 44.9819C348.825 44.9819 353.435 40.3724 353.435 34.6862C353.435 29.0001 348.825 24.3906 343.139 24.3906C337.453 24.3906 332.844 29.0001 332.844 34.6862C332.844 40.3724 337.453 44.9819 343.139 44.9819Z" stroke="#000" stroke-width="2" stroke-miterlimit="10"/>
<path d="M307.114 82.7317V47.4953C307.115 46.4171 307.371 45.3545 307.86 44.3934C308.348 43.4324 309.057 42.6 309.927 41.9637C310.797 41.3275 311.805 40.9052 312.869 40.7311C313.934 40.5571 315.024 40.6361 316.051 40.9619L325.338 43.8799C329.509 45.2036 333.151 47.8196 335.737 51.3496C338.324 54.8796 339.721 59.1407 339.726 63.5168V82.7317C339.726 83.6418 339.364 84.5147 338.721 85.1583C338.077 85.8019 337.204 86.1635 336.294 86.1635H310.601C310.145 86.1708 309.693 86.0875 309.27 85.9183C308.848 85.7491 308.463 85.4974 308.138 85.178C307.814 84.8586 307.556 84.4778 307.38 84.0578C307.204 83.6378 307.114 83.187 307.114 82.7317V82.7317Z" stroke="#000" stroke-width="2" stroke-miterlimit="10"/>
<path d="M377.458 82.7322V47.4959C377.456 46.4198 377.2 45.3594 376.713 44.4002C376.225 43.441 375.518 42.6099 374.65 41.974C373.782 41.3382 372.777 40.9153 371.715 40.7396C370.654 40.5639 369.566 40.6402 368.539 40.9625L359.253 43.8254C355.08 45.1466 351.436 47.7619 348.849 51.2925C346.263 54.823 344.867 59.0855 344.864 63.4623V82.7322C344.864 83.6424 345.226 84.5153 345.87 85.1589C346.513 85.8025 347.386 86.1641 348.296 86.1641H373.989C374.443 86.1689 374.893 86.0837 375.314 85.9134C375.735 85.7432 376.117 85.4911 376.44 85.172C376.762 84.8528 377.019 84.4728 377.193 84.054C377.368 83.6352 377.458 83.186 377.458 82.7322Z" stroke="#000" stroke-width="2" stroke-miterlimit="10"/>
</g>
<defs>
<clipPath id="clip0">
<rect width="146" height="88.1465" fill="white"/>
</clipPath>
<clipPath id="clip1">
<rect width="139" height="87.9991" fill="white" transform="translate(242)"/>
</clipPath>
</defs>
</svg>
