<svg width="297" height="138" viewBox="0 0 297 138" fill="none" xmlns="http://www.w3.org/2000/svg">
<g clip-path="url(#clip0)">
<path d="M130.498 20.5754L131.986 21.2642L133.324 22.135" stroke="#000" stroke-linecap="round" stroke-linejoin="round"/>
<path d="M168.458 100.375C169.036 100.81 172.218 102.884 173.572 103.763L174.253 104.175" stroke="#000" stroke-linecap="round" stroke-linejoin="round"/>
<path d="M102.9 15.2393C102.758 15.3105 103.003 16.0863 103.407 16.8226C104.388 18.3267 105.47 19.7629 106.645 21.1213C107.436 22.0317 113.493 27.5892 114.284 28.2858" stroke="#000" stroke-linecap="round" stroke-linejoin="round"/>
<path d="M109.978 9.67413C110.93 9.45671 111.906 9.3557 112.883 9.3733C113.572 9.46126 114.255 9.59614 114.926 9.77703C116.577 10.446 118.167 11.2593 119.676 12.2074C120.816 12.9516 126.729 17.4562 129.176 19.372" stroke="#000" stroke-linecap="round" stroke-linejoin="round"/>
<path d="M129.437 19.3879L130.118 19.8075" stroke="#000" stroke-linecap="round" stroke-linejoin="round"/>
<path d="M140.093 26.4971C142.214 28.4129 147.827 33.5112 148.508 34.0812C149.497 34.8728 155.72 39.5041 156.702 40.4145C157.683 41.3249 159.552 43.0666 160.47 43.9057C161.998 45.2595 168.181 49.8036 169.97 50.904C172.163 52.1944 176.232 54.4823 176.731 54.7198C176.942 54.826 177.161 54.9134 177.388 54.9811V54.9811" stroke="#000" stroke-linecap="round" stroke-linejoin="round"/>
<path d="M102.908 15.6274C102.755 15.221 102.693 14.7859 102.726 14.3528C102.862 13.5855 103.094 12.8382 103.415 12.1282C103.834 11.3675 104.368 10.676 104.998 10.0778C105.901 9.49819 106.943 9.17272 108.014 9.13574" stroke="#000" stroke-linecap="round" stroke-linejoin="round"/>
<path d="M110.453 9.49219L109.78 9.61886C109.127 9.71497 108.497 9.92677 107.919 10.2443C107.674 10.4105 106.051 11.7247 105.695 12.0968C105.269 12.6712 104.92 13.2994 104.658 13.9651C104.521 14.6823 104.463 15.4123 104.484 16.1421C104.484 16.1976 104.484 16.2292 104.484 16.2371" stroke="#000" stroke-linecap="round" stroke-linejoin="round"/>
<path d="M108.117 9.25464L109.447 9.50005" stroke="#000" stroke-linecap="round" stroke-linejoin="round"/>
<path d="M191.179 6.25415C190.381 6.42377 189.608 6.6896 188.875 7.04581C188.225 7.49084 187.599 7.96911 186.999 8.47872C186.455 9.05279 186.04 9.7354 185.779 10.4816C185.695 11.2525 185.695 12.0303 185.779 12.8012C185.944 13.6707 186.169 14.5278 186.452 15.3662C187.07 16.7777 187.9 18.086 188.914 19.2453C190.223 20.63 191.666 21.8817 193.221 22.982C194.809 23.9817 196.493 24.8198 198.248 25.4836C200.054 26.0797 201.955 26.3321 203.853 26.2278C204.005 26.1919 204.148 26.1245 204.273 26.0299" stroke="#000" stroke-linecap="round" stroke-linejoin="round"/>
<path d="M190.854 6.42041C191.574 6.42041 194.868 6.93499 195.913 7.03791C196.958 7.14082 200.583 7.34665 202.183 7.40999C203.465 7.40999 206.093 7.4654 207.479 7.33082C209.097 7.17252 210.725 7.14342 212.348 7.24375C213.179 7.39949 213.98 7.68536 214.723 8.09083C216.108 8.83499 219.544 10.6637 220.304 11.0041C222.084 11.5723 223.901 12.0193 225.743 12.3421C226.463 12.4529 229.883 12.7854 231.023 12.9912C232.667 13.3924 234.261 13.9794 235.773 14.7408L235.852 14.7804" stroke="#000" stroke-linecap="round" stroke-linejoin="round"/>
<path d="M208.801 11.6216C208.543 11.7978 208.3 11.9936 208.073 12.2074C207.432 12.8698 206.862 13.5967 206.371 14.3766C205.534 15.9219 204.926 17.5806 204.566 19.3007C204.463 19.934 204.328 21.3986 204.281 22.119C204.382 23.5658 204.577 25.0044 204.866 26.4257V26.4257" stroke="#000" stroke-linecap="round" stroke-linejoin="round"/>
<path d="M218.736 17.8359L218.071 17.9943C216.266 18.5435 214.49 19.1857 212.751 19.918C211.142 20.7084 209.585 21.5995 208.088 22.5859C206.766 23.7508 205.624 25.1062 204.7 26.6075C203.854 28.2309 203.146 29.9232 202.586 31.6663C202.357 32.4975 201.739 35.5058 201.478 37.0812C201.28 38.4904 201.019 40.7862 200.9 42.7495C200.846 44.6782 200.912 46.6083 201.098 48.5287C201.359 50.7137 202.365 56.5165 202.468 57.4269C202.577 58.4099 202.611 59.3997 202.571 60.3878C202.571 60.6174 202.531 60.9023 202.531 60.9182" stroke="#000" stroke-linecap="round" stroke-linejoin="round"/>
<path d="M201.937 54.6169C201.739 55.0919 201.146 58.3298 200.789 59.4619C200.544 60.2536 199.206 64.0456 198.842 64.8927C198.526 65.6565 198.119 66.3795 197.631 67.046C196.447 68.0411 195.187 68.9411 193.862 69.7377C191.186 71.1706 180.839 75.2793 179.692 75.9839C178.88 76.559 178.101 77.1774 177.356 77.8364C177.242 77.9582 177.136 78.0879 177.039 78.2243" stroke="#000" stroke-linecap="round" stroke-linejoin="round"/>
<path d="M202.578 60.8232L202.848 62.0899C202.929 62.5496 203.101 62.9884 203.354 63.3803V63.3011" stroke="#000" stroke-linecap="round" stroke-linejoin="round"/>
<path d="M235.702 14.5981C236.896 15.687 237.959 16.9119 238.868 18.2477C239.795 19.5176 240.534 20.9148 241.061 22.396C242.09 25.1035 243.721 29.3389 245.13 32.4739C246.373 35.1972 248.93 40.8972 250.134 43.7551C250.772 45.2398 251.301 46.7691 251.717 48.3309C252.002 49.6134 252.619 52.495 252.96 54.1021C253.308 55.8913 253.522 57.704 253.601 59.525C253.649 60.8075 253.72 63.5308 253.744 64.9716C253.72 66.9153 253.94 68.8543 254.401 70.7428C254.595 71.23 254.817 71.7057 255.066 72.1678" stroke="#000" stroke-linecap="round" stroke-linejoin="round"/>
<path d="M164.547 77.0761C165.928 73.8764 167.474 70.7505 169.178 67.7108C169.653 66.902 170.216 66.1481 170.857 65.4625C171.449 64.9247 172.082 64.4325 172.749 63.99C172.871 63.92 172.998 63.8592 173.129 63.8079H173.224" stroke="#000" stroke-linecap="round" stroke-linejoin="round"/>
<path d="M109.487 1.25863C109.732 1.06863 110.057 0.839053 110.279 0.720303C111.167 0.444798 112.098 0.334775 113.026 0.395719C114.802 0.39881 116.574 0.56041 118.322 0.878621C120.154 1.28151 121.947 1.84306 123.681 2.55694C124.726 3.00819 130.806 6.40443 133.49 8.03525C134.78 8.82692 137.235 10.4102 138.406 11.2019C139.728 12.0727 142.293 13.7985 142.365 13.8381L142.729 14.1469" stroke="#000" stroke-linecap="round" stroke-linejoin="round"/>
<path d="M109.463 1.35376C109.076 1.39634 108.703 1.52336 108.371 1.72584C107.768 2.19804 107.297 2.81672 107.001 3.52291C106.837 4.09141 106.757 4.68085 106.764 5.2725" stroke="#000" stroke-linecap="round" stroke-linejoin="round"/>
<path d="M106.574 5.53369C106.54 6.15471 106.604 6.77717 106.764 7.37825C106.971 7.77528 107.238 8.13834 107.555 8.45493" stroke="#000" stroke-linecap="round" stroke-linejoin="round"/>
<path d="M108.766 3.63354C108.512 4.35532 108.295 5.08993 108.117 5.83436C108.034 6.56141 108.091 7.29764 108.284 8.00351C108.386 8.30434 108.608 8.96935 108.616 9.00101C108.624 9.03268 108.616 9.0406 108.616 9.00101" stroke="#000" stroke-linecap="round" stroke-linejoin="round"/>
<path d="M109.044 2.9687C109.13 2.55029 109.311 2.15742 109.574 1.82078C109.846 1.53064 110.167 1.29197 110.524 1.11621" stroke="#000" stroke-linecap="round" stroke-linejoin="round"/>
<path d="M142.444 14.155C142.444 14.1154 147.249 16.9099 152.118 19.8945C155.356 21.9291 158.451 24.2011 161.42 26.497C163.993 28.5315 170.128 33.3923 170.421 33.6219C171.87 34.5957 178.013 38.0315 180.602 39.4485C181.932 40.2402 184.806 41.974 186.191 42.8369L187.117 43.4306L186.761 43.201" stroke="#000" stroke-linecap="round" stroke-linejoin="round"/>
<path d="M128.93 4.93201C128.913 4.8888 128.913 4.84066 128.93 4.79744C129.049 4.45453 129.263 4.15252 129.548 3.92661C130.261 3.3666 131.064 2.93039 131.923 2.6362C133.627 2.31381 135.372 2.26305 137.092 2.48578C137.884 2.60453 141.328 3.40411 142.278 3.67327C144.906 4.46494 149.577 6.11159 153.123 7.52866C154.35 8.05908 156.424 8.96951 158.15 9.84825C161.729 11.7799 171.846 17.9549 172.875 18.4615C173.904 18.9682 176.438 20.1794 177.744 20.8365C179.308 21.6959 180.921 22.465 182.573 23.1402C183.824 23.4648 186.341 24.1377 187.964 24.684C189.278 25.159 192.018 26.2277 193.427 26.8215C194.836 27.4152 197.931 28.9036 198.873 29.4577C199.816 30.0119 201.431 31.041 201.85 31.1835L202.19 31.2944" stroke="#000" stroke-linecap="round" stroke-linejoin="round"/>
<path d="M172.606 64.236L172.884 64.0613" stroke="#000" stroke-linecap="round" stroke-linejoin="round"/>
<path d="M170.88 65.0903C171.339 64.6074 172.091 63.8632 172.464 63.412C172.836 62.9607 174.522 59.8574 175.266 58.472C175.672 57.6797 176.154 56.9293 176.707 56.2316C177.016 55.9229 177.855 55.25 177.855 55.2579" stroke="#000" stroke-linecap="round" stroke-linejoin="round"/>
<path d="M177.451 55.44L178.623 54.7671" stroke="#000" stroke-linecap="round" stroke-linejoin="round"/>
<path d="M177.926 55.0441C178.102 54.885 178.268 54.7159 178.425 54.5375C178.844 54.0546 180.855 51.4737 181.481 50.8404C182.106 50.2071 184.734 47.8717 185.787 46.9454C186.84 46.0192 189.682 43.9609 189.674 43.9688" stroke="#000" stroke-linecap="round" stroke-linejoin="round"/>
<path d="M186.864 43.2959L189.057 44.1351" stroke="#000" stroke-linecap="round" stroke-linejoin="round"/>
<path d="M188.693 44.1749C188.982 44.1101 189.263 44.0145 189.532 43.8899C190.834 42.912 192.007 41.7735 193.023 40.5016C193.617 39.7495 194.828 37.7307 195.271 37.1528" stroke="#000" stroke-linecap="round" stroke-linejoin="round"/>
<path d="M178.124 55.3847L178.9 54.7039" stroke="#000" stroke-linecap="round" stroke-linejoin="round"/>
<path d="M176.747 78.0579C175.369 79.1788 174.063 80.3845 172.836 81.6679C171.644 83.1076 170.562 84.6344 169.598 86.2357C169.219 86.9091 168.899 87.6136 168.64 88.3416C168.636 88.3995 168.636 88.4578 168.64 88.5157" stroke="#000" stroke-linecap="round" stroke-linejoin="round"/>
<path d="M173.437 103.739C175.812 105.077 180.839 107.761 183.412 109.115C186.167 110.476 191.456 112.756 194.234 113.928C197.013 115.1 200.892 116.572 204.684 117.831C214.184 121.092 217.58 122.138 221.396 123.198C222.98 123.673 224.682 124.188 224.737 124.22" stroke="#000" stroke-linecap="round" stroke-linejoin="round"/>
<path d="M224.484 124.101L226.772 124.806C228.355 125.312 232.02 126.5 232.48 126.666C232.788 126.785 236.501 129.041 236.683 129.184C238.143 129.933 239.695 130.487 241.299 130.83C244.315 131.361 249.682 131.78 249.92 131.812C250.157 131.844 250.624 131.899 250.854 131.946" stroke="#000" stroke-linecap="round" stroke-linejoin="round"/>
<path d="M250.229 131.764C250.561 131.764 258.185 132.825 261.423 133.268C267.289 133.973 279.37 135.509 285.584 136.34L288.434 136.704" stroke="#000" stroke-linecap="round" stroke-linejoin="round"/>
<path d="M248.645 77.0525C250.069 75.912 251.599 74.9099 253.213 74.06C254.006 73.6539 254.868 73.4014 255.754 73.3158L257.726 73.0625" stroke="#000" stroke-linecap="round" stroke-linejoin="round"/>
<path d="M254.979 72.1045C255.034 72.308 255.137 72.4953 255.279 72.6507C255.506 72.8093 255.741 72.9546 255.984 73.0861L256.586 73.3395" stroke="#000" stroke-linecap="round" stroke-linejoin="round"/>
<path d="M257.187 73.102L257.108 73.1812C257.678 73.2603 265.286 73.862 268.476 73.9016C271.152 73.9016 275.688 73.9016 279.979 73.6799C286.218 73.2682 292.765 72.8407 296.169 72.6982H296.604" stroke="#000" stroke-linecap="round" stroke-linejoin="round"/>
<path d="M203.521 63.2458C204.249 64.8567 205.161 66.3787 206.236 67.7821L206.442 68.0117" stroke="#000" stroke-linecap="round" stroke-linejoin="round"/>
<path d="M126.991 67.6555L126.911 67.7747" stroke="#000" stroke-linecap="round" stroke-linejoin="round"/>
<path d="M132.271 96.575C131.388 98.244 130.309 99.8014 129.057 101.214C127.439 102.451 125.758 103.603 124.022 104.666L122.573 105.56" stroke="#000" stroke-linecap="round" stroke-linejoin="round"/>
<path d="M191.622 21.834L188.898 24.684" stroke="#000" stroke-linecap="round" stroke-linejoin="round"/>
<path d="M185.217 11.1465C184.451 11.179 183.689 11.2716 182.937 11.4236C181.311 11.968 179.748 12.6845 178.274 13.5611C177.039 14.3131 172.78 17.4402 172.107 17.939" stroke="#000" stroke-linecap="round" stroke-linejoin="round"/>
<path d="M126.341 52.8118C123.856 54.2051 120.8 55.9072 120.349 56.113C120.148 56.2119 119.939 56.2914 119.723 56.3505V56.3505" stroke="#000" stroke-linecap="round" stroke-linejoin="round"/>
<path d="M106.233 7.5603L107.935 8.04323" stroke="#000" stroke-linecap="round" stroke-linejoin="round"/>
<path d="M107.405 21.644C105.968 22.8728 104.452 24.0073 102.869 25.0403C101.268 25.8841 99.5901 26.5708 97.8574 27.0907C96.4163 27.3937 94.9424 27.5108 93.4716 27.439C93.3194 27.4032 93.1765 27.3357 93.052 27.2411" stroke="#000" stroke-linecap="round" stroke-linejoin="round"/>
<path d="M106.566 7.72656C105.845 7.72656 102.552 8.21739 101.499 8.32031C100.446 8.42323 96.8282 8.58948 95.229 8.64489C93.9465 8.64489 91.3182 8.68447 89.9328 8.54197C88.3187 8.36712 86.693 8.32478 85.072 8.41533C84.2427 8.57005 83.4418 8.85035 82.697 9.24656C81.3037 9.99073 77.8521 11.7957 77.0921 12.1282C75.311 12.6888 73.4939 13.1279 71.6533 13.4424C70.925 13.5374 67.505 13.854 66.365 14.052C64.7226 14.4456 63.1294 15.0218 61.6151 15.7699C61.5857 15.7802 61.5588 15.7963 61.5359 15.8174" stroke="#000" stroke-linecap="round" stroke-linejoin="round"/>
<path d="M88.5712 12.8171C88.8269 12.9958 89.0702 13.1915 89.2995 13.403C89.933 14.0733 90.4979 14.8053 90.9857 15.588C91.8123 17.1403 92.4096 18.8043 92.7591 20.5279C92.862 21.1533 92.9886 22.6179 93.0282 23.3462C92.9136 24.7934 92.7073 26.2318 92.4107 27.6529V27.6529" stroke="#000" stroke-linecap="round" stroke-linejoin="round"/>
<path d="M78.5963 18.9919C78.81 19.0553 79.0079 19.1028 79.2612 19.1582C80.1242 19.3403 83.845 20.7811 84.5733 21.1136C86.1748 21.9152 87.7242 22.8169 89.2124 23.8132C90.5306 24.9843 91.6672 26.345 92.5849 27.8506C93.4187 29.4814 94.1152 31.1788 94.667 32.9252C94.8887 33.7564 95.4587 36.7727 95.7357 38.3481C95.9337 39.7573 96.1791 42.0531 96.282 44.0164C96.3249 45.9456 96.2482 47.8757 96.0524 49.7955C95.7753 51.9805 94.7382 57.7755 94.6195 58.6859C94.5075 59.6686 94.4705 60.6584 94.5087 61.6467C94.5087 61.8763 94.5087 62.1613 94.5087 62.1692" stroke="#000" stroke-linecap="round" stroke-linejoin="round"/>
<path d="M95.1895 55.8438C95.3795 56.3108 95.9811 59.5567 96.3057 60.6887C96.5432 61.4804 97.889 65.2804 98.2215 66.1354C98.5356 66.8993 98.9367 67.6245 99.4169 68.2966C100.598 69.2944 101.852 70.2021 103.169 71.012C105.837 72.4607 116.161 76.6249 117.301 77.3453C118.108 77.9277 118.885 78.5513 119.628 79.2136C119.731 79.3245 119.897 79.5382 119.945 79.6015" stroke="#000" stroke-linecap="round" stroke-linejoin="round"/>
<path d="M94.4928 62.0505C94.4374 62.3039 94.3028 62.9451 94.2157 63.3251C94.1363 63.784 93.961 64.2211 93.7011 64.6076V64.5284" stroke="#000" stroke-linecap="round" stroke-linejoin="round"/>
<path d="M61.6546 15.6353C60.4617 16.7166 59.3989 17.9334 58.488 19.2611C57.5569 20.5265 56.8106 21.9179 56.2713 23.3935C55.2263 26.0931 53.5638 30.3206 52.1388 33.4556C50.8801 36.163 48.2835 41.8472 47.0643 44.6972C46.4291 46.1804 45.9 47.7069 45.481 49.265C45.1881 50.5475 44.5468 53.4292 44.2064 55.0204C43.8424 56.8082 43.6148 58.6211 43.5256 60.4433C43.4701 61.7258 43.3831 64.4571 43.3514 65.8979C43.3649 67.8382 43.1308 69.7722 42.6547 71.6533C42.4601 72.1404 42.2381 72.6162 41.9897 73.0783" stroke="#000" stroke-linecap="round" stroke-linejoin="round"/>
<path d="M132.429 78.5488C131.063 75.339 129.536 72.2001 127.853 69.1438C127.379 68.3363 126.822 67.5802 126.191 66.8876C125.594 66.3497 124.962 65.8525 124.299 65.3993C124.179 65.3321 124.055 65.2739 123.927 65.2251H123.832" stroke="#000" stroke-linecap="round" stroke-linejoin="round"/>
<path d="M187.949 3.06361C187.703 2.87361 187.379 2.63611 187.157 2.51736C186.27 2.2349 185.339 2.11948 184.41 2.17695C182.635 2.17232 180.862 2.3233 179.114 2.62818C177.279 3.01502 175.482 3.56614 173.746 4.27485C171.086 5.37526 162.544 10.529 161.578 11.1385" stroke="#000" stroke-linecap="round" stroke-linejoin="round"/>
<path d="M187.972 3.15869C188.359 3.20127 188.732 3.32829 189.065 3.53077C189.348 3.77423 189.613 4.03888 189.856 4.32244C190.217 4.8794 190.46 5.50455 190.569 6.1591" stroke="#000" stroke-linecap="round" stroke-linejoin="round"/>
<path d="M188.653 5.44653L188.986 6.45986" stroke="#000" stroke-linecap="round" stroke-linejoin="round"/>
<path d="M118.583 39.7256C116.113 41.0477 111.87 43.6206 110.532 44.4756L110.065 44.7764L110.421 44.5468" stroke="#000" stroke-linecap="round" stroke-linejoin="round"/>
<path d="M168.482 6.61043C168.497 6.59197 168.509 6.57047 168.515 6.5473C168.522 6.52414 168.524 6.49982 168.521 6.47586C168.4 6.1383 168.189 5.84004 167.912 5.61295C167.211 5.04935 166.422 4.60532 165.576 4.29879C163.87 3.97315 162.124 3.91173 160.399 4.1167C159.647 4.23545 156.227 4.99546 155.182 5.28837C153.867 5.67628 151.754 6.31754 150.693 6.6817" stroke="#000" stroke-linecap="round" stroke-linejoin="round"/>
<path d="M111.181 25.4282C110.144 25.7449 107.547 26.687 106.099 27.2253C104.65 27.7636 101.713 29.054 100.478 29.6399C99.2428 30.2257 95.6328 32.3473 95.4745 32.4028L95.134 32.5136" stroke="#000" stroke-linecap="round" stroke-linejoin="round"/>
<path d="M124.442 65.6533L124.164 65.4785" stroke="#000" stroke-linecap="round" stroke-linejoin="round"/>
<path d="M126.167 66.4915C125.708 66.0086 124.964 65.2565 124.584 64.8053C124.204 64.354 122.549 61.2349 121.813 59.8495C121.409 59.0576 120.931 58.305 120.388 57.6012C120.071 57.2924 119.24 56.6116 119.24 56.6116" stroke="#000" stroke-linecap="round" stroke-linejoin="round"/>
<path d="M119.652 56.8256L118.48 56.1448" stroke="#000" stroke-linecap="round" stroke-linejoin="round"/>
<path d="M119.185 56.4298C119.002 56.2722 118.833 56.1001 118.678 55.9152C118.266 55.4402 116.303 52.8435 115.646 52.2023C115.139 51.6798 112.416 49.2177 111.371 48.244C110.326 47.2702 107.492 45.2436 107.5 45.2515" stroke="#000" stroke-linecap="round" stroke-linejoin="round"/>
<path d="M110.318 44.626L108.117 45.4572" stroke="#000" stroke-linecap="round" stroke-linejoin="round"/>
<path d="M108.474 45.4969C108.188 45.4248 107.91 45.3267 107.642 45.204C106.347 44.2095 105.177 43.0611 104.159 41.784C103.629 41.0953 102.006 38.3798 101.293 37.7703C100.632 37.2348 99.8995 36.7951 99.1161 36.464L98.6173 36.274L98.4669 36.2107" stroke="#000" stroke-linecap="round" stroke-linejoin="round"/>
<path d="M118.979 56.77L118.203 56.0813" stroke="#000" stroke-linecap="round" stroke-linejoin="round"/>
<path d="M120.222 79.4512C121.591 80.578 122.89 81.7889 124.109 83.077C125.292 84.5263 126.366 86.061 127.323 87.6686C127.694 88.3453 128.007 89.0524 128.257 89.7824C128.262 89.843 128.262 89.9038 128.257 89.9644" stroke="#000" stroke-linecap="round" stroke-linejoin="round"/>
<path d="M123.365 105.156C120.942 106.471 115.939 109.115 113.358 110.461C110.595 111.806 105.291 114.063 102.504 115.211C99.7178 116.359 95.8307 117.815 92.0307 119.05C82.5308 122.256 79.1029 123.278 75.2871 124.315C73.6642 124.782 71.9938 125.288 71.9384 125.312" stroke="#000" stroke-linecap="round" stroke-linejoin="round"/>
<path d="M72.1996 125.201L69.9117 125.89C68.3284 126.389 64.6472 127.553 64.188 127.719C63.8793 127.83 60.1584 130.094 59.9684 130.213C58.5036 130.935 56.9526 131.467 55.3531 131.796C52.3289 132.303 46.9535 132.698 46.716 132.722C46.4785 132.746 46.0194 132.809 45.7819 132.857" stroke="#000" stroke-linecap="round" stroke-linejoin="round"/>
<path d="M46.3993 132.706C46.0668 132.706 38.4352 133.72 35.1894 134.139C29.3232 134.812 17.2345 136.277 11.012 137.068L8.16205 137.409" stroke="#000" stroke-linecap="round" stroke-linejoin="round"/>
<path d="M48.3547 78.0023C46.9362 76.8529 45.412 75.8404 43.8027 74.9782C43.0147 74.5592 42.1556 74.2907 41.2693 74.1865L39.2981 73.9253" stroke="#000" stroke-linecap="round" stroke-linejoin="round"/>
<path d="M42.0214 73.0149C41.9632 73.2189 41.8574 73.4061 41.7127 73.5611C41.4847 73.7214 41.2467 73.8668 41.0002 73.9966L40.3985 74.242" stroke="#000" stroke-linecap="round" stroke-linejoin="round"/>
<path d="M39.8127 74.0045L39.8919 74.0758C39.3219 74.1549 31.7061 74.7091 28.5157 74.7329C25.8399 74.7329 21.3036 74.6854 17.0128 74.44C10.7825 73.9887 4.23541 73.5216 0.83126 73.3633H0.395844" stroke="#000" stroke-linecap="round" stroke-linejoin="round"/>
<path d="M93.527 64.481C92.7903 66.0895 91.8683 67.6066 90.7799 69.0014C90.7166 69.0884 90.5741 69.2388 90.582 69.2309" stroke="#000" stroke-linecap="round" stroke-linejoin="round"/>
<path d="M134.63 65.5732L131.21 68.3757" stroke="#000" stroke-linecap="round" stroke-linejoin="round"/>
<path d="M146.845 79.6174L139.024 88.3653C134.915 93.2499 132.105 97.0736 132.002 97.2082" stroke="#000" stroke-linecap="round" stroke-linejoin="round"/>
<path d="M131.131 68.4552C131.131 68.3681 129.389 69.6506 129.231 69.7297C129.073 69.8089 128.613 69.9593 128.629 69.9593" stroke="#000" stroke-linecap="round" stroke-linejoin="round"/>
<path d="M201.225 32.4028C200.515 32.6217 199.837 32.9303 199.206 33.3212C198.516 33.7228 197.871 34.1979 197.282 34.7382C196.556 35.5051 195.909 36.3432 195.351 37.2399V37.2953" stroke="#000" stroke-linecap="round" stroke-linejoin="round"/>
<path d="M201.28 32.4502C201.28 32.3789 201.51 32.3077 202.016 32.2285" stroke="#000" stroke-linecap="round" stroke-linejoin="round"/>
<path d="M108.917 3.14282L108.735 3.83157" stroke="#000" stroke-linecap="round" stroke-linejoin="round"/>
<path d="M129.278 19.554C129.523 19.56 129.757 19.6558 129.936 19.8231C130.181 19.9973 136.673 24.0744 137.298 24.5177L140.1 26.6156" stroke="#000" stroke-linecap="round" stroke-linejoin="round"/>
<path d="M145.729 55.1789C145.5 55.1656 145.27 55.1656 145.04 55.1789C144.253 55.3571 143.48 55.5953 142.729 55.8914C142.372 56.1316 142.056 56.4284 141.795 56.7701V56.7701" stroke="#000" stroke-linecap="round" stroke-linejoin="round"/>
<path d="M145.508 55.3215C145.766 55.2539 146.035 55.2377 146.299 55.274C146.41 55.2761 146.519 55.306 146.616 55.3611V55.3611" stroke="#000" stroke-linecap="round" stroke-linejoin="round"/>
<path d="M187.561 3.15869C188.083 3.38827 188.764 5.19325 188.724 5.15367" stroke="#000" stroke-linecap="round" stroke-linejoin="round"/>
<path d="M119.319 24.7551C118.631 24.7708 117.948 24.8855 117.293 25.0955C116.644 25.3189 116.056 25.6903 115.575 26.1801C115.241 26.607 114.974 27.0821 114.783 27.5893C114.608 28.2118 114.554 28.8622 114.625 29.5051C114.649 30.3776 114.84 31.2375 115.187 32.0384" stroke="#000" stroke-linecap="round" stroke-linejoin="round"/>
<path d="M115.147 31.8091C115.416 32.5216 116.556 34.8253 117.206 36.1553C117.91 37.612 119.581 41.0953 119.929 41.6969C120.111 42.0294 124.085 48.3786 125.613 50.809C127.141 53.2394 129.959 57.6252 131.448 60.3881C132.304 61.9736 133.277 63.4925 134.361 64.9322C135.006 65.5823 135.7 66.183 136.435 66.7293" stroke="#000" stroke-linecap="round" stroke-linejoin="round"/>
<path d="M136.087 66.6343L136.878 67.6001C138.763 69.8722 143.212 75.1921 144.645 76.7755C148.508 80.9159 157.208 90.3446 159.963 93.1233C163.415 96.4245 166.035 99.3379 166.977 99.7258C167.18 99.7912 167.386 99.844 167.595 99.8841V99.702" stroke="#000" stroke-linecap="round" stroke-linejoin="round"/>
<path d="M118.718 24.6445L119.557 25.1512" stroke="#000" stroke-linecap="round" stroke-linejoin="round"/>
<path d="M119.24 25.6656C119.783 25.4839 120.36 25.4297 120.926 25.5073C121.14 25.5706 123.143 26.1247 123.412 26.1881C124.87 26.6542 126.253 27.3259 127.521 28.1831C128.853 29.2508 130.107 30.4122 131.273 31.6585C131.321 31.7218 137.464 39.8126 137.813 40.3667C139.586 43.1851 141.771 47.1829 143.552 50.0804C144.22 51.4274 144.976 52.7286 145.816 53.9754C145.979 54.1509 146.113 54.3514 146.212 54.5692H146.165" stroke="#000" stroke-linecap="round" stroke-linejoin="round"/>
<path d="M145.967 54.6169C146.435 55.0603 146.929 55.4754 147.447 55.8599C149.688 57.1978 153.59 59.7469 156.725 61.4648C157.952 62.1456 160.723 64.0536 161.396 64.4336C161.657 64.576 163.597 65.5102 163.937 65.6527C164.571 65.9298 166.099 66.4444 166.194 66.4444C166.864 66.5847 167.544 66.6746 168.228 66.7135C168.573 66.7825 168.922 66.83 169.273 66.856C169.363 66.8605 169.45 66.8878 169.527 66.9352" stroke="#000" stroke-linecap="round" stroke-linejoin="round"/>
<path d="M168.687 66.927C168.687 66.927 168.687 66.927 168.735 66.927L169.052 66.9903H169.099" stroke="#000" stroke-linecap="round" stroke-linejoin="round"/>
<path d="M115.456 32.8143C115.456 32.6639 115.456 32.553 115.456 32.4976C115.437 31.787 115.461 31.0759 115.527 30.3681C115.645 29.5969 115.806 28.833 116.01 28.0802C116.487 27.5212 117.051 27.0428 117.681 26.6631V26.6631" stroke="#000" stroke-linecap="round" stroke-linejoin="round"/>
</g>
<defs>
<clipPath id="clip0">
<rect width="297" height="137.813" fill="white"/>
</clipPath>
</defs>
</svg>
