<svg width="10" height="12" viewBox="0 0 10 12" fill="none" xmlns="http://www.w3.org/2000/svg">
<path d="M5 0.175781C2.73047 0.175781 0.925781 1.98047 0.925781 4.25C0.925781 6.68359 3.49609 10.0469 4.5625 11.3047C4.78125 11.6055 5.21875 11.6055 5.4375 11.3047C6.50391 10.0469 9.07422 6.68359 9.07422 4.25C9.07422 1.98047 7.26953 0.175781 5 0.175781ZM5 5.69922C4.20703 5.69922 3.55078 5.04297 3.55078 4.25C3.55078 3.45703 4.20703 2.80078 5 2.80078C5.79297 2.80078 6.44922 3.45703 6.44922 4.25C6.44922 5.04297 5.79297 5.69922 5 5.69922Z" fill="#3D8D90"/>
</svg>
